<?xml version="1.0" encoding="utf-8" standalone="no"?>
<!DOCTYPE svg PUBLIC "-//W3C//DTD SVG 1.1//EN"
  "http://www.w3.org/Graphics/SVG/1.1/DTD/svg11.dtd">
<!-- Created with matplotlib (https://matplotlib.org/) -->
<svg height="695.2055pt" version="1.1" viewBox="0 0 1050.696875 695.2055" width="1050.696875pt" xmlns="http://www.w3.org/2000/svg" xmlns:xlink="http://www.w3.org/1999/xlink">
 <metadata>
  <rdf:RDF xmlns:cc="http://creativecommons.org/ns#" xmlns:dc="http://purl.org/dc/elements/1.1/" xmlns:rdf="http://www.w3.org/1999/02/22-rdf-syntax-ns#">
   <cc:Work>
    <dc:type rdf:resource="http://purl.org/dc/dcmitype/StillImage"/>
    <dc:date>2021-04-30T18:33:33.894923</dc:date>
    <dc:format>image/svg+xml</dc:format>
    <dc:creator>
     <cc:Agent>
      <dc:title>Matplotlib v3.3.2, https://matplotlib.org/</dc:title>
     </cc:Agent>
    </dc:creator>
   </cc:Work>
  </rdf:RDF>
 </metadata>
 <defs>
  <style type="text/css">*{stroke-linecap:butt;stroke-linejoin:round;}</style>
 </defs>
 <g id="figure_1">
  <g id="patch_1">
   <path d="M 0 695.2055 
L 1050.696875 695.2055 
L 1050.696875 0 
L 0 0 
z
" style="fill:none;"/>
  </g>
  <g id="axes_1">
   <g id="line2d_1">
    <path clip-path="url(#p6ed06a240d)" d="M 579.943437 517.9775 
L 579.943437 28.7375 
" style="fill:none;stroke:#c0c0c0;stroke-dasharray:5.55,2.4;stroke-dashoffset:0;stroke-opacity:0.5;stroke-width:1.5;"/>
   </g>
   <g id="matplotlib.axis_1">
    <g id="xtick_1">
     <g id="line2d_2">
      <path clip-path="url(#p6ed06a240d)" d="M 133.543438 517.9775 
L 133.543438 28.7375 
" style="fill:none;stroke:#c0c0c0;stroke-linecap:square;stroke-opacity:0.25;stroke-width:0.8;"/>
     </g>
     <g id="line2d_3">
      <defs>
       <path d="M 0 0 
L 0 3.5 
" id="mc7988fc612" style="stroke:#000000;stroke-width:0.8;"/>
      </defs>
      <g>
       <use style="stroke:#000000;stroke-width:0.8;" x="133.543438" xlink:href="#mc7988fc612" y="517.9775"/>
      </g>
     </g>
     <g id="text_1">
      <!-- 0% -->
      <g style="fill:#708090;" transform="translate(124.025 534.095625)scale(0.12 -0.12)">
       <defs>
        <path d="M 31.78125 66.40625 
Q 24.171875 66.40625 20.328125 58.90625 
Q 16.5 51.421875 16.5 36.375 
Q 16.5 21.390625 20.328125 13.890625 
Q 24.171875 6.390625 31.78125 6.390625 
Q 39.453125 6.390625 43.28125 13.890625 
Q 47.125 21.390625 47.125 36.375 
Q 47.125 51.421875 43.28125 58.90625 
Q 39.453125 66.40625 31.78125 66.40625 
z
M 31.78125 74.21875 
Q 44.046875 74.21875 50.515625 64.515625 
Q 56.984375 54.828125 56.984375 36.375 
Q 56.984375 17.96875 50.515625 8.265625 
Q 44.046875 -1.421875 31.78125 -1.421875 
Q 19.53125 -1.421875 13.0625 8.265625 
Q 6.59375 17.96875 6.59375 36.375 
Q 6.59375 54.828125 13.0625 64.515625 
Q 19.53125 74.21875 31.78125 74.21875 
z
" id="DejaVuSans-48"/>
        <path d="M 72.703125 32.078125 
Q 68.453125 32.078125 66.03125 28.46875 
Q 63.625 24.859375 63.625 18.40625 
Q 63.625 12.0625 66.03125 8.421875 
Q 68.453125 4.78125 72.703125 4.78125 
Q 76.859375 4.78125 79.265625 8.421875 
Q 81.6875 12.0625 81.6875 18.40625 
Q 81.6875 24.8125 79.265625 28.4375 
Q 76.859375 32.078125 72.703125 32.078125 
z
M 72.703125 38.28125 
Q 80.421875 38.28125 84.953125 32.90625 
Q 89.5 27.546875 89.5 18.40625 
Q 89.5 9.28125 84.9375 3.921875 
Q 80.375 -1.421875 72.703125 -1.421875 
Q 64.890625 -1.421875 60.34375 3.921875 
Q 55.8125 9.28125 55.8125 18.40625 
Q 55.8125 27.59375 60.375 32.9375 
Q 64.9375 38.28125 72.703125 38.28125 
z
M 22.3125 68.015625 
Q 18.109375 68.015625 15.6875 64.375 
Q 13.28125 60.75 13.28125 54.390625 
Q 13.28125 47.953125 15.671875 44.328125 
Q 18.0625 40.71875 22.3125 40.71875 
Q 26.5625 40.71875 28.96875 44.328125 
Q 31.390625 47.953125 31.390625 54.390625 
Q 31.390625 60.6875 28.953125 64.34375 
Q 26.515625 68.015625 22.3125 68.015625 
z
M 66.40625 74.21875 
L 74.21875 74.21875 
L 28.609375 -1.421875 
L 20.796875 -1.421875 
z
M 22.3125 74.21875 
Q 30.03125 74.21875 34.609375 68.875 
Q 39.203125 63.53125 39.203125 54.390625 
Q 39.203125 45.171875 34.640625 39.84375 
Q 30.078125 34.515625 22.3125 34.515625 
Q 14.546875 34.515625 10.03125 39.859375 
Q 5.515625 45.21875 5.515625 54.390625 
Q 5.515625 63.484375 10.046875 68.84375 
Q 14.59375 74.21875 22.3125 74.21875 
z
" id="DejaVuSans-37"/>
       </defs>
       <use xlink:href="#DejaVuSans-48"/>
       <use x="63.623047" xlink:href="#DejaVuSans-37"/>
      </g>
     </g>
    </g>
    <g id="xtick_2">
     <g id="line2d_4">
      <path clip-path="url(#p6ed06a240d)" d="M 312.103437 517.9775 
L 312.103437 28.7375 
" style="fill:none;stroke:#c0c0c0;stroke-linecap:square;stroke-opacity:0.25;stroke-width:0.8;"/>
     </g>
     <g id="line2d_5">
      <g>
       <use style="stroke:#000000;stroke-width:0.8;" x="312.103437" xlink:href="#mc7988fc612" y="517.9775"/>
      </g>
     </g>
     <g id="text_2">
      <!-- 20% -->
      <g style="fill:#708090;" transform="translate(298.7675 534.095625)scale(0.12 -0.12)">
       <defs>
        <path d="M 19.1875 8.296875 
L 53.609375 8.296875 
L 53.609375 0 
L 7.328125 0 
L 7.328125 8.296875 
Q 12.9375 14.109375 22.625 23.890625 
Q 32.328125 33.6875 34.8125 36.53125 
Q 39.546875 41.84375 41.421875 45.53125 
Q 43.3125 49.21875 43.3125 52.78125 
Q 43.3125 58.59375 39.234375 62.25 
Q 35.15625 65.921875 28.609375 65.921875 
Q 23.96875 65.921875 18.8125 64.3125 
Q 13.671875 62.703125 7.8125 59.421875 
L 7.8125 69.390625 
Q 13.765625 71.78125 18.9375 73 
Q 24.125 74.21875 28.421875 74.21875 
Q 39.75 74.21875 46.484375 68.546875 
Q 53.21875 62.890625 53.21875 53.421875 
Q 53.21875 48.921875 51.53125 44.890625 
Q 49.859375 40.875 45.40625 35.40625 
Q 44.1875 33.984375 37.640625 27.21875 
Q 31.109375 20.453125 19.1875 8.296875 
z
" id="DejaVuSans-50"/>
       </defs>
       <use xlink:href="#DejaVuSans-50"/>
       <use x="63.623047" xlink:href="#DejaVuSans-48"/>
       <use x="127.246094" xlink:href="#DejaVuSans-37"/>
      </g>
     </g>
    </g>
    <g id="xtick_3">
     <g id="line2d_6">
      <path clip-path="url(#p6ed06a240d)" d="M 490.663437 517.9775 
L 490.663437 28.7375 
" style="fill:none;stroke:#c0c0c0;stroke-linecap:square;stroke-opacity:0.25;stroke-width:0.8;"/>
     </g>
     <g id="line2d_7">
      <g>
       <use style="stroke:#000000;stroke-width:0.8;" x="490.663437" xlink:href="#mc7988fc612" y="517.9775"/>
      </g>
     </g>
     <g id="text_3">
      <!-- 40% -->
      <g style="fill:#708090;" transform="translate(477.3275 534.095625)scale(0.12 -0.12)">
       <defs>
        <path d="M 37.796875 64.3125 
L 12.890625 25.390625 
L 37.796875 25.390625 
z
M 35.203125 72.90625 
L 47.609375 72.90625 
L 47.609375 25.390625 
L 58.015625 25.390625 
L 58.015625 17.1875 
L 47.609375 17.1875 
L 47.609375 0 
L 37.796875 0 
L 37.796875 17.1875 
L 4.890625 17.1875 
L 4.890625 26.703125 
z
" id="DejaVuSans-52"/>
       </defs>
       <use xlink:href="#DejaVuSans-52"/>
       <use x="63.623047" xlink:href="#DejaVuSans-48"/>
       <use x="127.246094" xlink:href="#DejaVuSans-37"/>
      </g>
     </g>
    </g>
    <g id="xtick_4">
     <g id="line2d_8">
      <path clip-path="url(#p6ed06a240d)" d="M 669.223437 517.9775 
L 669.223437 28.7375 
" style="fill:none;stroke:#c0c0c0;stroke-linecap:square;stroke-opacity:0.25;stroke-width:0.8;"/>
     </g>
     <g id="line2d_9">
      <g>
       <use style="stroke:#000000;stroke-width:0.8;" x="669.223437" xlink:href="#mc7988fc612" y="517.9775"/>
      </g>
     </g>
     <g id="text_4">
      <!-- 60% -->
      <g style="fill:#708090;" transform="translate(655.8875 534.095625)scale(0.12 -0.12)">
       <defs>
        <path d="M 33.015625 40.375 
Q 26.375 40.375 22.484375 35.828125 
Q 18.609375 31.296875 18.609375 23.390625 
Q 18.609375 15.53125 22.484375 10.953125 
Q 26.375 6.390625 33.015625 6.390625 
Q 39.65625 6.390625 43.53125 10.953125 
Q 47.40625 15.53125 47.40625 23.390625 
Q 47.40625 31.296875 43.53125 35.828125 
Q 39.65625 40.375 33.015625 40.375 
z
M 52.59375 71.296875 
L 52.59375 62.3125 
Q 48.875 64.0625 45.09375 64.984375 
Q 41.3125 65.921875 37.59375 65.921875 
Q 27.828125 65.921875 22.671875 59.328125 
Q 17.53125 52.734375 16.796875 39.40625 
Q 19.671875 43.65625 24.015625 45.921875 
Q 28.375 48.1875 33.59375 48.1875 
Q 44.578125 48.1875 50.953125 41.515625 
Q 57.328125 34.859375 57.328125 23.390625 
Q 57.328125 12.15625 50.6875 5.359375 
Q 44.046875 -1.421875 33.015625 -1.421875 
Q 20.359375 -1.421875 13.671875 8.265625 
Q 6.984375 17.96875 6.984375 36.375 
Q 6.984375 53.65625 15.1875 63.9375 
Q 23.390625 74.21875 37.203125 74.21875 
Q 40.921875 74.21875 44.703125 73.484375 
Q 48.484375 72.75 52.59375 71.296875 
z
" id="DejaVuSans-54"/>
       </defs>
       <use xlink:href="#DejaVuSans-54"/>
       <use x="63.623047" xlink:href="#DejaVuSans-48"/>
       <use x="127.246094" xlink:href="#DejaVuSans-37"/>
      </g>
     </g>
    </g>
    <g id="xtick_5">
     <g id="line2d_10">
      <path clip-path="url(#p6ed06a240d)" d="M 847.783437 517.9775 
L 847.783437 28.7375 
" style="fill:none;stroke:#c0c0c0;stroke-linecap:square;stroke-opacity:0.25;stroke-width:0.8;"/>
     </g>
     <g id="line2d_11">
      <g>
       <use style="stroke:#000000;stroke-width:0.8;" x="847.783437" xlink:href="#mc7988fc612" y="517.9775"/>
      </g>
     </g>
     <g id="text_5">
      <!-- 80% -->
      <g style="fill:#708090;" transform="translate(834.4475 534.095625)scale(0.12 -0.12)">
       <defs>
        <path d="M 31.78125 34.625 
Q 24.75 34.625 20.71875 30.859375 
Q 16.703125 27.09375 16.703125 20.515625 
Q 16.703125 13.921875 20.71875 10.15625 
Q 24.75 6.390625 31.78125 6.390625 
Q 38.8125 6.390625 42.859375 10.171875 
Q 46.921875 13.96875 46.921875 20.515625 
Q 46.921875 27.09375 42.890625 30.859375 
Q 38.875 34.625 31.78125 34.625 
z
M 21.921875 38.8125 
Q 15.578125 40.375 12.03125 44.71875 
Q 8.5 49.078125 8.5 55.328125 
Q 8.5 64.0625 14.71875 69.140625 
Q 20.953125 74.21875 31.78125 74.21875 
Q 42.671875 74.21875 48.875 69.140625 
Q 55.078125 64.0625 55.078125 55.328125 
Q 55.078125 49.078125 51.53125 44.71875 
Q 48 40.375 41.703125 38.8125 
Q 48.828125 37.15625 52.796875 32.3125 
Q 56.78125 27.484375 56.78125 20.515625 
Q 56.78125 9.90625 50.3125 4.234375 
Q 43.84375 -1.421875 31.78125 -1.421875 
Q 19.734375 -1.421875 13.25 4.234375 
Q 6.78125 9.90625 6.78125 20.515625 
Q 6.78125 27.484375 10.78125 32.3125 
Q 14.796875 37.15625 21.921875 38.8125 
z
M 18.3125 54.390625 
Q 18.3125 48.734375 21.84375 45.5625 
Q 25.390625 42.390625 31.78125 42.390625 
Q 38.140625 42.390625 41.71875 45.5625 
Q 45.3125 48.734375 45.3125 54.390625 
Q 45.3125 60.0625 41.71875 63.234375 
Q 38.140625 66.40625 31.78125 66.40625 
Q 25.390625 66.40625 21.84375 63.234375 
Q 18.3125 60.0625 18.3125 54.390625 
z
" id="DejaVuSans-56"/>
       </defs>
       <use xlink:href="#DejaVuSans-56"/>
       <use x="63.623047" xlink:href="#DejaVuSans-48"/>
       <use x="127.246094" xlink:href="#DejaVuSans-37"/>
      </g>
     </g>
    </g>
    <g id="xtick_6">
     <g id="line2d_12">
      <path clip-path="url(#p6ed06a240d)" d="M 1026.343437 517.9775 
L 1026.343437 28.7375 
" style="fill:none;stroke:#c0c0c0;stroke-linecap:square;stroke-opacity:0.25;stroke-width:0.8;"/>
     </g>
     <g id="line2d_13">
      <g>
       <use style="stroke:#000000;stroke-width:0.8;" x="1026.343437" xlink:href="#mc7988fc612" y="517.9775"/>
      </g>
     </g>
     <g id="text_6">
      <!-- 100% -->
      <g style="fill:#708090;" transform="translate(1009.19 534.095625)scale(0.12 -0.12)">
       <defs>
        <path d="M 12.40625 8.296875 
L 28.515625 8.296875 
L 28.515625 63.921875 
L 10.984375 60.40625 
L 10.984375 69.390625 
L 28.421875 72.90625 
L 38.28125 72.90625 
L 38.28125 8.296875 
L 54.390625 8.296875 
L 54.390625 0 
L 12.40625 0 
z
" id="DejaVuSans-49"/>
       </defs>
       <use xlink:href="#DejaVuSans-49"/>
       <use x="63.623047" xlink:href="#DejaVuSans-48"/>
       <use x="127.246094" xlink:href="#DejaVuSans-48"/>
       <use x="190.869141" xlink:href="#DejaVuSans-37"/>
      </g>
     </g>
    </g>
    <g id="xtick_7">
     <g id="line2d_14">
      <defs>
       <path d="M 0 0 
L 0 2 
" id="m62dd692169" style="stroke:#000000;stroke-width:0.6;"/>
      </defs>
      <g>
       <use style="stroke:#000000;stroke-width:0.6;" x="178.183437" xlink:href="#m62dd692169" y="517.9775"/>
      </g>
     </g>
    </g>
    <g id="xtick_8">
     <g id="line2d_15">
      <g>
       <use style="stroke:#000000;stroke-width:0.6;" x="222.823438" xlink:href="#m62dd692169" y="517.9775"/>
      </g>
     </g>
    </g>
    <g id="xtick_9">
     <g id="line2d_16">
      <g>
       <use style="stroke:#000000;stroke-width:0.6;" x="267.463437" xlink:href="#m62dd692169" y="517.9775"/>
      </g>
     </g>
    </g>
    <g id="xtick_10">
     <g id="line2d_17">
      <g>
       <use style="stroke:#000000;stroke-width:0.6;" x="356.743438" xlink:href="#m62dd692169" y="517.9775"/>
      </g>
     </g>
    </g>
    <g id="xtick_11">
     <g id="line2d_18">
      <g>
       <use style="stroke:#000000;stroke-width:0.6;" x="401.383438" xlink:href="#m62dd692169" y="517.9775"/>
      </g>
     </g>
    </g>
    <g id="xtick_12">
     <g id="line2d_19">
      <g>
       <use style="stroke:#000000;stroke-width:0.6;" x="446.023438" xlink:href="#m62dd692169" y="517.9775"/>
      </g>
     </g>
    </g>
    <g id="xtick_13">
     <g id="line2d_20">
      <g>
       <use style="stroke:#000000;stroke-width:0.6;" x="535.303437" xlink:href="#m62dd692169" y="517.9775"/>
      </g>
     </g>
    </g>
    <g id="xtick_14">
     <g id="line2d_21">
      <g>
       <use style="stroke:#000000;stroke-width:0.6;" x="579.943437" xlink:href="#m62dd692169" y="517.9775"/>
      </g>
     </g>
    </g>
    <g id="xtick_15">
     <g id="line2d_22">
      <g>
       <use style="stroke:#000000;stroke-width:0.6;" x="624.583437" xlink:href="#m62dd692169" y="517.9775"/>
      </g>
     </g>
    </g>
    <g id="xtick_16">
     <g id="line2d_23">
      <g>
       <use style="stroke:#000000;stroke-width:0.6;" x="713.863437" xlink:href="#m62dd692169" y="517.9775"/>
      </g>
     </g>
    </g>
    <g id="xtick_17">
     <g id="line2d_24">
      <g>
       <use style="stroke:#000000;stroke-width:0.6;" x="758.503437" xlink:href="#m62dd692169" y="517.9775"/>
      </g>
     </g>
    </g>
    <g id="xtick_18">
     <g id="line2d_25">
      <g>
       <use style="stroke:#000000;stroke-width:0.6;" x="803.143437" xlink:href="#m62dd692169" y="517.9775"/>
      </g>
     </g>
    </g>
    <g id="xtick_19">
     <g id="line2d_26">
      <g>
       <use style="stroke:#000000;stroke-width:0.6;" x="892.423437" xlink:href="#m62dd692169" y="517.9775"/>
      </g>
     </g>
    </g>
    <g id="xtick_20">
     <g id="line2d_27">
      <g>
       <use style="stroke:#000000;stroke-width:0.6;" x="937.063437" xlink:href="#m62dd692169" y="517.9775"/>
      </g>
     </g>
    </g>
    <g id="xtick_21">
     <g id="line2d_28">
      <g>
       <use style="stroke:#000000;stroke-width:0.6;" x="981.703437" xlink:href="#m62dd692169" y="517.9775"/>
      </g>
     </g>
    </g>
    <g id="text_7">
     <!-- % da avaliação do governo -->
     <g style="fill:#708090;" transform="translate(484.957812 567.4675)scale(0.14 -0.14)">
      <defs>
       <path id="DejaVuSans-32"/>
       <path d="M 45.40625 46.390625 
L 45.40625 75.984375 
L 54.390625 75.984375 
L 54.390625 0 
L 45.40625 0 
L 45.40625 8.203125 
Q 42.578125 3.328125 38.25 0.953125 
Q 33.9375 -1.421875 27.875 -1.421875 
Q 17.96875 -1.421875 11.734375 6.484375 
Q 5.515625 14.40625 5.515625 27.296875 
Q 5.515625 40.1875 11.734375 48.09375 
Q 17.96875 56 27.875 56 
Q 33.9375 56 38.25 53.625 
Q 42.578125 51.265625 45.40625 46.390625 
z
M 14.796875 27.296875 
Q 14.796875 17.390625 18.875 11.75 
Q 22.953125 6.109375 30.078125 6.109375 
Q 37.203125 6.109375 41.296875 11.75 
Q 45.40625 17.390625 45.40625 27.296875 
Q 45.40625 37.203125 41.296875 42.84375 
Q 37.203125 48.484375 30.078125 48.484375 
Q 22.953125 48.484375 18.875 42.84375 
Q 14.796875 37.203125 14.796875 27.296875 
z
" id="DejaVuSans-100"/>
       <path d="M 34.28125 27.484375 
Q 23.390625 27.484375 19.1875 25 
Q 14.984375 22.515625 14.984375 16.5 
Q 14.984375 11.71875 18.140625 8.90625 
Q 21.296875 6.109375 26.703125 6.109375 
Q 34.1875 6.109375 38.703125 11.40625 
Q 43.21875 16.703125 43.21875 25.484375 
L 43.21875 27.484375 
z
M 52.203125 31.203125 
L 52.203125 0 
L 43.21875 0 
L 43.21875 8.296875 
Q 40.140625 3.328125 35.546875 0.953125 
Q 30.953125 -1.421875 24.3125 -1.421875 
Q 15.921875 -1.421875 10.953125 3.296875 
Q 6 8.015625 6 15.921875 
Q 6 25.140625 12.171875 29.828125 
Q 18.359375 34.515625 30.609375 34.515625 
L 43.21875 34.515625 
L 43.21875 35.40625 
Q 43.21875 41.609375 39.140625 45 
Q 35.0625 48.390625 27.6875 48.390625 
Q 23 48.390625 18.546875 47.265625 
Q 14.109375 46.140625 10.015625 43.890625 
L 10.015625 52.203125 
Q 14.9375 54.109375 19.578125 55.046875 
Q 24.21875 56 28.609375 56 
Q 40.484375 56 46.34375 49.84375 
Q 52.203125 43.703125 52.203125 31.203125 
z
" id="DejaVuSans-97"/>
       <path d="M 2.984375 54.6875 
L 12.5 54.6875 
L 29.59375 8.796875 
L 46.6875 54.6875 
L 56.203125 54.6875 
L 35.6875 0 
L 23.484375 0 
z
" id="DejaVuSans-118"/>
       <path d="M 9.421875 75.984375 
L 18.40625 75.984375 
L 18.40625 0 
L 9.421875 0 
z
" id="DejaVuSans-108"/>
       <path d="M 9.421875 54.6875 
L 18.40625 54.6875 
L 18.40625 0 
L 9.421875 0 
z
M 9.421875 75.984375 
L 18.40625 75.984375 
L 18.40625 64.59375 
L 9.421875 64.59375 
z
" id="DejaVuSans-105"/>
       <path d="M 48.78125 52.59375 
L 48.78125 44.1875 
Q 44.96875 46.296875 41.140625 47.34375 
Q 37.3125 48.390625 33.40625 48.390625 
Q 24.65625 48.390625 19.8125 42.84375 
Q 14.984375 37.3125 14.984375 27.296875 
Q 14.984375 17.28125 19.8125 11.734375 
Q 24.65625 6.203125 33.40625 6.203125 
Q 37.3125 6.203125 41.140625 7.25 
Q 44.96875 8.296875 48.78125 10.40625 
L 48.78125 2.09375 
Q 45.015625 0.34375 40.984375 -0.53125 
Q 36.96875 -1.421875 32.421875 -1.421875 
Q 20.0625 -1.421875 12.78125 6.34375 
Q 5.515625 14.109375 5.515625 27.296875 
Q 5.515625 40.671875 12.859375 48.328125 
Q 20.21875 56 33.015625 56 
Q 37.15625 56 41.109375 55.140625 
Q 45.0625 54.296875 48.78125 52.59375 
z
M 36.078125 0 
Q 38.765625 -3.03125 40.078125 -5.59375 
Q 41.40625 -8.15625 41.40625 -10.5 
Q 41.40625 -14.84375 38.46875 -17.0625 
Q 35.546875 -19.28125 29.78125 -19.28125 
Q 27.546875 -19.28125 25.421875 -18.984375 
Q 23.296875 -18.703125 21.1875 -18.109375 
L 21.1875 -11.71875 
Q 22.859375 -12.546875 24.65625 -12.90625 
Q 26.46875 -13.28125 28.765625 -13.28125 
Q 31.640625 -13.28125 33.109375 -12.109375 
Q 34.578125 -10.9375 34.578125 -8.6875 
Q 34.578125 -7.234375 33.515625 -5.109375 
Q 32.46875 -2.984375 30.28125 0 
z
" id="DejaVuSans-231"/>
       <path d="M 34.28125 27.484375 
Q 23.390625 27.484375 19.1875 25 
Q 14.984375 22.515625 14.984375 16.5 
Q 14.984375 11.71875 18.140625 8.90625 
Q 21.296875 6.109375 26.703125 6.109375 
Q 34.1875 6.109375 38.703125 11.40625 
Q 43.21875 16.703125 43.21875 25.484375 
L 43.21875 27.484375 
z
M 52.203125 31.203125 
L 52.203125 0 
L 43.21875 0 
L 43.21875 8.296875 
Q 40.140625 3.328125 35.546875 0.953125 
Q 30.953125 -1.421875 24.3125 -1.421875 
Q 15.921875 -1.421875 10.953125 3.296875 
Q 6 8.015625 6 15.921875 
Q 6 25.140625 12.171875 29.828125 
Q 18.359375 34.515625 30.609375 34.515625 
L 43.21875 34.515625 
L 43.21875 35.40625 
Q 43.21875 41.609375 39.140625 45 
Q 35.0625 48.390625 27.6875 48.390625 
Q 23 48.390625 18.546875 47.265625 
Q 14.109375 46.140625 10.015625 43.890625 
L 10.015625 52.203125 
Q 14.9375 54.109375 19.578125 55.046875 
Q 24.21875 56 28.609375 56 
Q 40.484375 56 46.34375 49.84375 
Q 52.203125 43.703125 52.203125 31.203125 
z
M 28.8125 66.890625 
L 26.03125 69.578125 
Q 24.953125 70.5625 24.140625 71.015625 
Q 23.34375 71.484375 22.703125 71.484375 
Q 20.84375 71.484375 19.96875 69.703125 
Q 19.09375 67.921875 19 63.921875 
L 12.890625 63.921875 
Q 12.984375 70.515625 15.46875 74.09375 
Q 17.96875 77.6875 22.40625 77.6875 
Q 24.265625 77.6875 25.828125 77 
Q 27.390625 76.3125 29.203125 74.703125 
L 31.984375 72.015625 
Q 33.0625 71.046875 33.859375 70.578125 
Q 34.671875 70.125 35.296875 70.125 
Q 37.15625 70.125 38.03125 71.90625 
Q 38.921875 73.6875 39.015625 77.6875 
L 45.125 77.6875 
Q 45.015625 71.09375 42.53125 67.5 
Q 40.046875 63.921875 35.59375 63.921875 
Q 33.734375 63.921875 32.171875 64.59375 
Q 30.609375 65.28125 28.8125 66.890625 
z
" id="DejaVuSans-227"/>
       <path d="M 30.609375 48.390625 
Q 23.390625 48.390625 19.1875 42.75 
Q 14.984375 37.109375 14.984375 27.296875 
Q 14.984375 17.484375 19.15625 11.84375 
Q 23.34375 6.203125 30.609375 6.203125 
Q 37.796875 6.203125 41.984375 11.859375 
Q 46.1875 17.53125 46.1875 27.296875 
Q 46.1875 37.015625 41.984375 42.703125 
Q 37.796875 48.390625 30.609375 48.390625 
z
M 30.609375 56 
Q 42.328125 56 49.015625 48.375 
Q 55.71875 40.765625 55.71875 27.296875 
Q 55.71875 13.875 49.015625 6.21875 
Q 42.328125 -1.421875 30.609375 -1.421875 
Q 18.84375 -1.421875 12.171875 6.21875 
Q 5.515625 13.875 5.515625 27.296875 
Q 5.515625 40.765625 12.171875 48.375 
Q 18.84375 56 30.609375 56 
z
" id="DejaVuSans-111"/>
       <path d="M 45.40625 27.984375 
Q 45.40625 37.75 41.375 43.109375 
Q 37.359375 48.484375 30.078125 48.484375 
Q 22.859375 48.484375 18.828125 43.109375 
Q 14.796875 37.75 14.796875 27.984375 
Q 14.796875 18.265625 18.828125 12.890625 
Q 22.859375 7.515625 30.078125 7.515625 
Q 37.359375 7.515625 41.375 12.890625 
Q 45.40625 18.265625 45.40625 27.984375 
z
M 54.390625 6.78125 
Q 54.390625 -7.171875 48.1875 -13.984375 
Q 42 -20.796875 29.203125 -20.796875 
Q 24.46875 -20.796875 20.265625 -20.09375 
Q 16.0625 -19.390625 12.109375 -17.921875 
L 12.109375 -9.1875 
Q 16.0625 -11.328125 19.921875 -12.34375 
Q 23.78125 -13.375 27.78125 -13.375 
Q 36.625 -13.375 41.015625 -8.765625 
Q 45.40625 -4.15625 45.40625 5.171875 
L 45.40625 9.625 
Q 42.625 4.78125 38.28125 2.390625 
Q 33.9375 0 27.875 0 
Q 17.828125 0 11.671875 7.65625 
Q 5.515625 15.328125 5.515625 27.984375 
Q 5.515625 40.671875 11.671875 48.328125 
Q 17.828125 56 27.875 56 
Q 33.9375 56 38.28125 53.609375 
Q 42.625 51.21875 45.40625 46.390625 
L 45.40625 54.6875 
L 54.390625 54.6875 
z
" id="DejaVuSans-103"/>
       <path d="M 56.203125 29.59375 
L 56.203125 25.203125 
L 14.890625 25.203125 
Q 15.484375 15.921875 20.484375 11.0625 
Q 25.484375 6.203125 34.421875 6.203125 
Q 39.59375 6.203125 44.453125 7.46875 
Q 49.3125 8.734375 54.109375 11.28125 
L 54.109375 2.78125 
Q 49.265625 0.734375 44.1875 -0.34375 
Q 39.109375 -1.421875 33.890625 -1.421875 
Q 20.796875 -1.421875 13.15625 6.1875 
Q 5.515625 13.8125 5.515625 26.8125 
Q 5.515625 40.234375 12.765625 48.109375 
Q 20.015625 56 32.328125 56 
Q 43.359375 56 49.78125 48.890625 
Q 56.203125 41.796875 56.203125 29.59375 
z
M 47.21875 32.234375 
Q 47.125 39.59375 43.09375 43.984375 
Q 39.0625 48.390625 32.421875 48.390625 
Q 24.90625 48.390625 20.390625 44.140625 
Q 15.875 39.890625 15.1875 32.171875 
z
" id="DejaVuSans-101"/>
       <path d="M 41.109375 46.296875 
Q 39.59375 47.171875 37.8125 47.578125 
Q 36.03125 48 33.890625 48 
Q 26.265625 48 22.1875 43.046875 
Q 18.109375 38.09375 18.109375 28.8125 
L 18.109375 0 
L 9.078125 0 
L 9.078125 54.6875 
L 18.109375 54.6875 
L 18.109375 46.1875 
Q 20.953125 51.171875 25.484375 53.578125 
Q 30.03125 56 36.53125 56 
Q 37.453125 56 38.578125 55.875 
Q 39.703125 55.765625 41.0625 55.515625 
z
" id="DejaVuSans-114"/>
       <path d="M 54.890625 33.015625 
L 54.890625 0 
L 45.90625 0 
L 45.90625 32.71875 
Q 45.90625 40.484375 42.875 44.328125 
Q 39.84375 48.1875 33.796875 48.1875 
Q 26.515625 48.1875 22.3125 43.546875 
Q 18.109375 38.921875 18.109375 30.90625 
L 18.109375 0 
L 9.078125 0 
L 9.078125 54.6875 
L 18.109375 54.6875 
L 18.109375 46.1875 
Q 21.34375 51.125 25.703125 53.5625 
Q 30.078125 56 35.796875 56 
Q 45.21875 56 50.046875 50.171875 
Q 54.890625 44.34375 54.890625 33.015625 
z
" id="DejaVuSans-110"/>
      </defs>
      <use xlink:href="#DejaVuSans-37"/>
      <use x="95.019531" xlink:href="#DejaVuSans-32"/>
      <use x="126.806641" xlink:href="#DejaVuSans-100"/>
      <use x="190.283203" xlink:href="#DejaVuSans-97"/>
      <use x="251.5625" xlink:href="#DejaVuSans-32"/>
      <use x="283.349609" xlink:href="#DejaVuSans-97"/>
      <use x="344.628906" xlink:href="#DejaVuSans-118"/>
      <use x="403.808594" xlink:href="#DejaVuSans-97"/>
      <use x="465.087891" xlink:href="#DejaVuSans-108"/>
      <use x="492.871094" xlink:href="#DejaVuSans-105"/>
      <use x="520.654297" xlink:href="#DejaVuSans-97"/>
      <use x="581.933594" xlink:href="#DejaVuSans-231"/>
      <use x="636.914062" xlink:href="#DejaVuSans-227"/>
      <use x="698.193359" xlink:href="#DejaVuSans-111"/>
      <use x="759.375" xlink:href="#DejaVuSans-32"/>
      <use x="791.162109" xlink:href="#DejaVuSans-100"/>
      <use x="854.638672" xlink:href="#DejaVuSans-111"/>
      <use x="915.820312" xlink:href="#DejaVuSans-32"/>
      <use x="947.607422" xlink:href="#DejaVuSans-103"/>
      <use x="1011.083984" xlink:href="#DejaVuSans-111"/>
      <use x="1072.265625" xlink:href="#DejaVuSans-118"/>
      <use x="1131.445312" xlink:href="#DejaVuSans-101"/>
      <use x="1192.96875" xlink:href="#DejaVuSans-114"/>
      <use x="1232.332031" xlink:href="#DejaVuSans-110"/>
      <use x="1295.710938" xlink:href="#DejaVuSans-111"/>
     </g>
    </g>
   </g>
   <g id="matplotlib.axis_2">
    <g id="ytick_1">
     <g id="line2d_29">
      <defs>
       <path d="M 0 0 
L -3.5 0 
" id="m5dd65d3ffc" style="stroke:#000000;stroke-width:0.8;"/>
      </defs>
      <g>
       <use style="stroke:#000000;stroke-width:0.8;" x="133.543438" xlink:href="#m5dd65d3ffc" y="93.111184"/>
      </g>
     </g>
     <g id="text_8">
      <!-- Péssima -->
      <g style="fill:#2f4f4f;" transform="translate(69.303125 98.43009)scale(0.14 -0.14)">
       <defs>
        <path d="M 19.671875 64.796875 
L 19.671875 37.40625 
L 32.078125 37.40625 
Q 38.96875 37.40625 42.71875 40.96875 
Q 46.484375 44.53125 46.484375 51.125 
Q 46.484375 57.671875 42.71875 61.234375 
Q 38.96875 64.796875 32.078125 64.796875 
z
M 9.8125 72.90625 
L 32.078125 72.90625 
Q 44.34375 72.90625 50.609375 67.359375 
Q 56.890625 61.8125 56.890625 51.125 
Q 56.890625 40.328125 50.609375 34.8125 
Q 44.34375 29.296875 32.078125 29.296875 
L 19.671875 29.296875 
L 19.671875 0 
L 9.8125 0 
z
" id="DejaVuSans-80"/>
        <path d="M 56.203125 29.59375 
L 56.203125 25.203125 
L 14.890625 25.203125 
Q 15.484375 15.921875 20.484375 11.0625 
Q 25.484375 6.203125 34.421875 6.203125 
Q 39.59375 6.203125 44.453125 7.46875 
Q 49.3125 8.734375 54.109375 11.28125 
L 54.109375 2.78125 
Q 49.265625 0.734375 44.1875 -0.34375 
Q 39.109375 -1.421875 33.890625 -1.421875 
Q 20.796875 -1.421875 13.15625 6.1875 
Q 5.515625 13.8125 5.515625 26.8125 
Q 5.515625 40.234375 12.765625 48.109375 
Q 20.015625 56 32.328125 56 
Q 43.359375 56 49.78125 48.890625 
Q 56.203125 41.796875 56.203125 29.59375 
z
M 47.21875 32.234375 
Q 47.125 39.59375 43.09375 43.984375 
Q 39.0625 48.390625 32.421875 48.390625 
Q 24.90625 48.390625 20.390625 44.140625 
Q 15.875 39.890625 15.1875 32.171875 
z
M 38.578125 79.984375 
L 48.296875 79.984375 
L 32.375 61.625 
L 24.90625 61.625 
z
" id="DejaVuSans-233"/>
        <path d="M 44.28125 53.078125 
L 44.28125 44.578125 
Q 40.484375 46.53125 36.375 47.5 
Q 32.28125 48.484375 27.875 48.484375 
Q 21.1875 48.484375 17.84375 46.4375 
Q 14.5 44.390625 14.5 40.28125 
Q 14.5 37.15625 16.890625 35.375 
Q 19.28125 33.59375 26.515625 31.984375 
L 29.59375 31.296875 
Q 39.15625 29.25 43.1875 25.515625 
Q 47.21875 21.78125 47.21875 15.09375 
Q 47.21875 7.46875 41.1875 3.015625 
Q 35.15625 -1.421875 24.609375 -1.421875 
Q 20.21875 -1.421875 15.453125 -0.5625 
Q 10.6875 0.296875 5.421875 2 
L 5.421875 11.28125 
Q 10.40625 8.6875 15.234375 7.390625 
Q 20.0625 6.109375 24.8125 6.109375 
Q 31.15625 6.109375 34.5625 8.28125 
Q 37.984375 10.453125 37.984375 14.40625 
Q 37.984375 18.0625 35.515625 20.015625 
Q 33.0625 21.96875 24.703125 23.78125 
L 21.578125 24.515625 
Q 13.234375 26.265625 9.515625 29.90625 
Q 5.8125 33.546875 5.8125 39.890625 
Q 5.8125 47.609375 11.28125 51.796875 
Q 16.75 56 26.8125 56 
Q 31.78125 56 36.171875 55.265625 
Q 40.578125 54.546875 44.28125 53.078125 
z
" id="DejaVuSans-115"/>
        <path d="M 52 44.1875 
Q 55.375 50.25 60.0625 53.125 
Q 64.75 56 71.09375 56 
Q 79.640625 56 84.28125 50.015625 
Q 88.921875 44.046875 88.921875 33.015625 
L 88.921875 0 
L 79.890625 0 
L 79.890625 32.71875 
Q 79.890625 40.578125 77.09375 44.375 
Q 74.3125 48.1875 68.609375 48.1875 
Q 61.625 48.1875 57.5625 43.546875 
Q 53.515625 38.921875 53.515625 30.90625 
L 53.515625 0 
L 44.484375 0 
L 44.484375 32.71875 
Q 44.484375 40.625 41.703125 44.40625 
Q 38.921875 48.1875 33.109375 48.1875 
Q 26.21875 48.1875 22.15625 43.53125 
Q 18.109375 38.875 18.109375 30.90625 
L 18.109375 0 
L 9.078125 0 
L 9.078125 54.6875 
L 18.109375 54.6875 
L 18.109375 46.1875 
Q 21.1875 51.21875 25.484375 53.609375 
Q 29.78125 56 35.6875 56 
Q 41.65625 56 45.828125 52.96875 
Q 50 49.953125 52 44.1875 
z
" id="DejaVuSans-109"/>
       </defs>
       <use xlink:href="#DejaVuSans-80"/>
       <use x="56.677734" xlink:href="#DejaVuSans-233"/>
       <use x="118.201172" xlink:href="#DejaVuSans-115"/>
       <use x="170.300781" xlink:href="#DejaVuSans-115"/>
       <use x="222.400391" xlink:href="#DejaVuSans-105"/>
       <use x="250.183594" xlink:href="#DejaVuSans-109"/>
       <use x="347.595703" xlink:href="#DejaVuSans-97"/>
      </g>
     </g>
    </g>
    <g id="ytick_2">
     <g id="line2d_30">
      <g>
       <use style="stroke:#000000;stroke-width:0.8;" x="133.543438" xlink:href="#m5dd65d3ffc" y="157.484868"/>
      </g>
     </g>
     <g id="text_9">
      <!-- Ruim -->
      <g style="fill:#2f4f4f;" transform="translate(91.046875 162.803775)scale(0.14 -0.14)">
       <defs>
        <path d="M 44.390625 34.1875 
Q 47.5625 33.109375 50.5625 29.59375 
Q 53.5625 26.078125 56.59375 19.921875 
L 66.609375 0 
L 56 0 
L 46.6875 18.703125 
Q 43.0625 26.03125 39.671875 28.421875 
Q 36.28125 30.8125 30.421875 30.8125 
L 19.671875 30.8125 
L 19.671875 0 
L 9.8125 0 
L 9.8125 72.90625 
L 32.078125 72.90625 
Q 44.578125 72.90625 50.734375 67.671875 
Q 56.890625 62.453125 56.890625 51.90625 
Q 56.890625 45.015625 53.6875 40.46875 
Q 50.484375 35.9375 44.390625 34.1875 
z
M 19.671875 64.796875 
L 19.671875 38.921875 
L 32.078125 38.921875 
Q 39.203125 38.921875 42.84375 42.21875 
Q 46.484375 45.515625 46.484375 51.90625 
Q 46.484375 58.296875 42.84375 61.546875 
Q 39.203125 64.796875 32.078125 64.796875 
z
" id="DejaVuSans-82"/>
        <path d="M 8.5 21.578125 
L 8.5 54.6875 
L 17.484375 54.6875 
L 17.484375 21.921875 
Q 17.484375 14.15625 20.5 10.265625 
Q 23.53125 6.390625 29.59375 6.390625 
Q 36.859375 6.390625 41.078125 11.03125 
Q 45.3125 15.671875 45.3125 23.6875 
L 45.3125 54.6875 
L 54.296875 54.6875 
L 54.296875 0 
L 45.3125 0 
L 45.3125 8.40625 
Q 42.046875 3.421875 37.71875 1 
Q 33.40625 -1.421875 27.6875 -1.421875 
Q 18.265625 -1.421875 13.375 4.4375 
Q 8.5 10.296875 8.5 21.578125 
z
M 31.109375 56 
z
" id="DejaVuSans-117"/>
       </defs>
       <use xlink:href="#DejaVuSans-82"/>
       <use x="64.982422" xlink:href="#DejaVuSans-117"/>
       <use x="128.361328" xlink:href="#DejaVuSans-105"/>
       <use x="156.144531" xlink:href="#DejaVuSans-109"/>
      </g>
     </g>
    </g>
    <g id="ytick_3">
     <g id="line2d_31">
      <g>
       <use style="stroke:#000000;stroke-width:0.8;" x="133.543438" xlink:href="#m5dd65d3ffc" y="221.858553"/>
      </g>
     </g>
     <g id="text_10">
      <!-- Regular negativa -->
      <g style="fill:#2f4f4f;" transform="translate(7.2 227.177459)scale(0.14 -0.14)">
       <defs>
        <path d="M 18.3125 70.21875 
L 18.3125 54.6875 
L 36.8125 54.6875 
L 36.8125 47.703125 
L 18.3125 47.703125 
L 18.3125 18.015625 
Q 18.3125 11.328125 20.140625 9.421875 
Q 21.96875 7.515625 27.59375 7.515625 
L 36.8125 7.515625 
L 36.8125 0 
L 27.59375 0 
Q 17.1875 0 13.234375 3.875 
Q 9.28125 7.765625 9.28125 18.015625 
L 9.28125 47.703125 
L 2.6875 47.703125 
L 2.6875 54.6875 
L 9.28125 54.6875 
L 9.28125 70.21875 
z
" id="DejaVuSans-116"/>
       </defs>
       <use xlink:href="#DejaVuSans-82"/>
       <use x="64.982422" xlink:href="#DejaVuSans-101"/>
       <use x="126.505859" xlink:href="#DejaVuSans-103"/>
       <use x="189.982422" xlink:href="#DejaVuSans-117"/>
       <use x="253.361328" xlink:href="#DejaVuSans-108"/>
       <use x="281.144531" xlink:href="#DejaVuSans-97"/>
       <use x="342.423828" xlink:href="#DejaVuSans-114"/>
       <use x="383.537109" xlink:href="#DejaVuSans-32"/>
       <use x="415.324219" xlink:href="#DejaVuSans-110"/>
       <use x="478.703125" xlink:href="#DejaVuSans-101"/>
       <use x="540.226562" xlink:href="#DejaVuSans-103"/>
       <use x="603.703125" xlink:href="#DejaVuSans-97"/>
       <use x="664.982422" xlink:href="#DejaVuSans-116"/>
       <use x="704.191406" xlink:href="#DejaVuSans-105"/>
       <use x="731.974609" xlink:href="#DejaVuSans-118"/>
       <use x="791.154297" xlink:href="#DejaVuSans-97"/>
      </g>
     </g>
    </g>
    <g id="ytick_4">
     <g id="line2d_32">
      <g>
       <use style="stroke:#000000;stroke-width:0.8;" x="133.543438" xlink:href="#m5dd65d3ffc" y="286.232237"/>
      </g>
     </g>
     <g id="text_11">
      <!-- NS/NR -->
      <g style="fill:#2f4f4f;" transform="translate(82.264063 291.551143)scale(0.14 -0.14)">
       <defs>
        <path d="M 9.8125 72.90625 
L 23.09375 72.90625 
L 55.421875 11.921875 
L 55.421875 72.90625 
L 64.984375 72.90625 
L 64.984375 0 
L 51.703125 0 
L 19.390625 60.984375 
L 19.390625 0 
L 9.8125 0 
z
" id="DejaVuSans-78"/>
        <path d="M 53.515625 70.515625 
L 53.515625 60.890625 
Q 47.90625 63.578125 42.921875 64.890625 
Q 37.9375 66.21875 33.296875 66.21875 
Q 25.25 66.21875 20.875 63.09375 
Q 16.5 59.96875 16.5 54.203125 
Q 16.5 49.359375 19.40625 46.890625 
Q 22.3125 44.4375 30.421875 42.921875 
L 36.375 41.703125 
Q 47.40625 39.59375 52.65625 34.296875 
Q 57.90625 29 57.90625 20.125 
Q 57.90625 9.515625 50.796875 4.046875 
Q 43.703125 -1.421875 29.984375 -1.421875 
Q 24.8125 -1.421875 18.96875 -0.25 
Q 13.140625 0.921875 6.890625 3.21875 
L 6.890625 13.375 
Q 12.890625 10.015625 18.65625 8.296875 
Q 24.421875 6.59375 29.984375 6.59375 
Q 38.421875 6.59375 43.015625 9.90625 
Q 47.609375 13.234375 47.609375 19.390625 
Q 47.609375 24.75 44.3125 27.78125 
Q 41.015625 30.8125 33.5 32.328125 
L 27.484375 33.5 
Q 16.453125 35.6875 11.515625 40.375 
Q 6.59375 45.0625 6.59375 53.421875 
Q 6.59375 63.09375 13.40625 68.65625 
Q 20.21875 74.21875 32.171875 74.21875 
Q 37.3125 74.21875 42.625 73.28125 
Q 47.953125 72.359375 53.515625 70.515625 
z
" id="DejaVuSans-83"/>
        <path d="M 25.390625 72.90625 
L 33.6875 72.90625 
L 8.296875 -9.28125 
L 0 -9.28125 
z
" id="DejaVuSans-47"/>
       </defs>
       <use xlink:href="#DejaVuSans-78"/>
       <use x="74.804688" xlink:href="#DejaVuSans-83"/>
       <use x="138.28125" xlink:href="#DejaVuSans-47"/>
       <use x="171.972656" xlink:href="#DejaVuSans-78"/>
       <use x="246.777344" xlink:href="#DejaVuSans-82"/>
      </g>
     </g>
    </g>
    <g id="ytick_5">
     <g id="line2d_33">
      <g>
       <use style="stroke:#000000;stroke-width:0.8;" x="133.543438" xlink:href="#m5dd65d3ffc" y="350.605921"/>
      </g>
     </g>
     <g id="text_12">
      <!-- Regular positiva -->
      <g style="fill:#2f4f4f;" transform="translate(13.5175 355.924827)scale(0.14 -0.14)">
       <defs>
        <path d="M 18.109375 8.203125 
L 18.109375 -20.796875 
L 9.078125 -20.796875 
L 9.078125 54.6875 
L 18.109375 54.6875 
L 18.109375 46.390625 
Q 20.953125 51.265625 25.265625 53.625 
Q 29.59375 56 35.59375 56 
Q 45.5625 56 51.78125 48.09375 
Q 58.015625 40.1875 58.015625 27.296875 
Q 58.015625 14.40625 51.78125 6.484375 
Q 45.5625 -1.421875 35.59375 -1.421875 
Q 29.59375 -1.421875 25.265625 0.953125 
Q 20.953125 3.328125 18.109375 8.203125 
z
M 48.6875 27.296875 
Q 48.6875 37.203125 44.609375 42.84375 
Q 40.53125 48.484375 33.40625 48.484375 
Q 26.265625 48.484375 22.1875 42.84375 
Q 18.109375 37.203125 18.109375 27.296875 
Q 18.109375 17.390625 22.1875 11.75 
Q 26.265625 6.109375 33.40625 6.109375 
Q 40.53125 6.109375 44.609375 11.75 
Q 48.6875 17.390625 48.6875 27.296875 
z
" id="DejaVuSans-112"/>
       </defs>
       <use xlink:href="#DejaVuSans-82"/>
       <use x="64.982422" xlink:href="#DejaVuSans-101"/>
       <use x="126.505859" xlink:href="#DejaVuSans-103"/>
       <use x="189.982422" xlink:href="#DejaVuSans-117"/>
       <use x="253.361328" xlink:href="#DejaVuSans-108"/>
       <use x="281.144531" xlink:href="#DejaVuSans-97"/>
       <use x="342.423828" xlink:href="#DejaVuSans-114"/>
       <use x="383.537109" xlink:href="#DejaVuSans-32"/>
       <use x="415.324219" xlink:href="#DejaVuSans-112"/>
       <use x="478.800781" xlink:href="#DejaVuSans-111"/>
       <use x="539.982422" xlink:href="#DejaVuSans-115"/>
       <use x="592.082031" xlink:href="#DejaVuSans-105"/>
       <use x="619.865234" xlink:href="#DejaVuSans-116"/>
       <use x="659.074219" xlink:href="#DejaVuSans-105"/>
       <use x="686.857422" xlink:href="#DejaVuSans-118"/>
       <use x="746.037109" xlink:href="#DejaVuSans-97"/>
      </g>
     </g>
    </g>
    <g id="ytick_6">
     <g id="line2d_34">
      <g>
       <use style="stroke:#000000;stroke-width:0.8;" x="133.543438" xlink:href="#m5dd65d3ffc" y="414.979605"/>
      </g>
     </g>
     <g id="text_13">
      <!-- Boa -->
      <g style="fill:#2f4f4f;" transform="translate(99.7925 420.298512)scale(0.14 -0.14)">
       <defs>
        <path d="M 19.671875 34.8125 
L 19.671875 8.109375 
L 35.5 8.109375 
Q 43.453125 8.109375 47.28125 11.40625 
Q 51.125 14.703125 51.125 21.484375 
Q 51.125 28.328125 47.28125 31.5625 
Q 43.453125 34.8125 35.5 34.8125 
z
M 19.671875 64.796875 
L 19.671875 42.828125 
L 34.28125 42.828125 
Q 41.5 42.828125 45.03125 45.53125 
Q 48.578125 48.25 48.578125 53.8125 
Q 48.578125 59.328125 45.03125 62.0625 
Q 41.5 64.796875 34.28125 64.796875 
z
M 9.8125 72.90625 
L 35.015625 72.90625 
Q 46.296875 72.90625 52.390625 68.21875 
Q 58.5 63.53125 58.5 54.890625 
Q 58.5 48.1875 55.375 44.234375 
Q 52.25 40.28125 46.1875 39.3125 
Q 53.46875 37.75 57.5 32.78125 
Q 61.53125 27.828125 61.53125 20.40625 
Q 61.53125 10.640625 54.890625 5.3125 
Q 48.25 0 35.984375 0 
L 9.8125 0 
z
" id="DejaVuSans-66"/>
       </defs>
       <use xlink:href="#DejaVuSans-66"/>
       <use x="68.603516" xlink:href="#DejaVuSans-111"/>
       <use x="129.785156" xlink:href="#DejaVuSans-97"/>
      </g>
     </g>
    </g>
    <g id="ytick_7">
     <g id="line2d_35">
      <g>
       <use style="stroke:#000000;stroke-width:0.8;" x="133.543438" xlink:href="#m5dd65d3ffc" y="479.353289"/>
      </g>
     </g>
     <g id="text_14">
      <!-- Ótima -->
      <g style="fill:#2f4f4f;" transform="translate(83.92875 484.672196)scale(0.14 -0.14)">
       <defs>
        <path d="M 39.40625 66.21875 
Q 28.65625 66.21875 22.328125 58.203125 
Q 16.015625 50.203125 16.015625 36.375 
Q 16.015625 22.609375 22.328125 14.59375 
Q 28.65625 6.59375 39.40625 6.59375 
Q 50.140625 6.59375 56.421875 14.59375 
Q 62.703125 22.609375 62.703125 36.375 
Q 62.703125 50.203125 56.421875 58.203125 
Q 50.140625 66.21875 39.40625 66.21875 
z
M 39.40625 74.21875 
Q 54.734375 74.21875 63.90625 63.9375 
Q 73.09375 53.65625 73.09375 36.375 
Q 73.09375 19.140625 63.90625 8.859375 
Q 54.734375 -1.421875 39.40625 -1.421875 
Q 24.03125 -1.421875 14.8125 8.828125 
Q 5.609375 19.09375 5.609375 36.375 
Q 5.609375 53.65625 14.8125 63.9375 
Q 24.03125 74.21875 39.40625 74.21875 
z
M 42.09375 92.734375 
L 51.125 92.734375 
L 39.984375 79.84375 
L 32.515625 79.84375 
z
" id="DejaVuSans-211"/>
       </defs>
       <use xlink:href="#DejaVuSans-211"/>
       <use x="78.710938" xlink:href="#DejaVuSans-116"/>
       <use x="117.919922" xlink:href="#DejaVuSans-105"/>
       <use x="145.703125" xlink:href="#DejaVuSans-109"/>
       <use x="243.115234" xlink:href="#DejaVuSans-97"/>
      </g>
     </g>
    </g>
    <g id="ytick_8">
     <g id="line2d_36">
      <defs>
       <path d="M 0 0 
L -2 0 
" id="meb95086211" style="stroke:#000000;stroke-width:0.6;"/>
      </defs>
      <g>
       <use style="stroke:#000000;stroke-width:0.6;" x="133.543438" xlink:href="#meb95086211" y="41.612237"/>
      </g>
     </g>
    </g>
    <g id="ytick_9">
     <g id="line2d_37">
      <g>
       <use style="stroke:#000000;stroke-width:0.6;" x="133.543438" xlink:href="#meb95086211" y="54.486974"/>
      </g>
     </g>
    </g>
    <g id="ytick_10">
     <g id="line2d_38">
      <g>
       <use style="stroke:#000000;stroke-width:0.6;" x="133.543438" xlink:href="#meb95086211" y="67.361711"/>
      </g>
     </g>
    </g>
    <g id="ytick_11">
     <g id="line2d_39">
      <g>
       <use style="stroke:#000000;stroke-width:0.6;" x="133.543438" xlink:href="#meb95086211" y="80.236447"/>
      </g>
     </g>
    </g>
    <g id="ytick_12">
     <g id="line2d_40">
      <g>
       <use style="stroke:#000000;stroke-width:0.6;" x="133.543438" xlink:href="#meb95086211" y="105.985921"/>
      </g>
     </g>
    </g>
    <g id="ytick_13">
     <g id="line2d_41">
      <g>
       <use style="stroke:#000000;stroke-width:0.6;" x="133.543438" xlink:href="#meb95086211" y="118.860658"/>
      </g>
     </g>
    </g>
    <g id="ytick_14">
     <g id="line2d_42">
      <g>
       <use style="stroke:#000000;stroke-width:0.6;" x="133.543438" xlink:href="#meb95086211" y="131.735395"/>
      </g>
     </g>
    </g>
    <g id="ytick_15">
     <g id="line2d_43">
      <g>
       <use style="stroke:#000000;stroke-width:0.6;" x="133.543438" xlink:href="#meb95086211" y="144.610132"/>
      </g>
     </g>
    </g>
    <g id="ytick_16">
     <g id="line2d_44">
      <g>
       <use style="stroke:#000000;stroke-width:0.6;" x="133.543438" xlink:href="#meb95086211" y="170.359605"/>
      </g>
     </g>
    </g>
    <g id="ytick_17">
     <g id="line2d_45">
      <g>
       <use style="stroke:#000000;stroke-width:0.6;" x="133.543438" xlink:href="#meb95086211" y="183.234342"/>
      </g>
     </g>
    </g>
    <g id="ytick_18">
     <g id="line2d_46">
      <g>
       <use style="stroke:#000000;stroke-width:0.6;" x="133.543438" xlink:href="#meb95086211" y="196.109079"/>
      </g>
     </g>
    </g>
    <g id="ytick_19">
     <g id="line2d_47">
      <g>
       <use style="stroke:#000000;stroke-width:0.6;" x="133.543438" xlink:href="#meb95086211" y="208.983816"/>
      </g>
     </g>
    </g>
    <g id="ytick_20">
     <g id="line2d_48">
      <g>
       <use style="stroke:#000000;stroke-width:0.6;" x="133.543438" xlink:href="#meb95086211" y="234.733289"/>
      </g>
     </g>
    </g>
    <g id="ytick_21">
     <g id="line2d_49">
      <g>
       <use style="stroke:#000000;stroke-width:0.6;" x="133.543438" xlink:href="#meb95086211" y="247.608026"/>
      </g>
     </g>
    </g>
    <g id="ytick_22">
     <g id="line2d_50">
      <g>
       <use style="stroke:#000000;stroke-width:0.6;" x="133.543438" xlink:href="#meb95086211" y="260.482763"/>
      </g>
     </g>
    </g>
    <g id="ytick_23">
     <g id="line2d_51">
      <g>
       <use style="stroke:#000000;stroke-width:0.6;" x="133.543438" xlink:href="#meb95086211" y="273.3575"/>
      </g>
     </g>
    </g>
    <g id="ytick_24">
     <g id="line2d_52">
      <g>
       <use style="stroke:#000000;stroke-width:0.6;" x="133.543438" xlink:href="#meb95086211" y="299.106974"/>
      </g>
     </g>
    </g>
    <g id="ytick_25">
     <g id="line2d_53">
      <g>
       <use style="stroke:#000000;stroke-width:0.6;" x="133.543438" xlink:href="#meb95086211" y="311.981711"/>
      </g>
     </g>
    </g>
    <g id="ytick_26">
     <g id="line2d_54">
      <g>
       <use style="stroke:#000000;stroke-width:0.6;" x="133.543438" xlink:href="#meb95086211" y="324.856447"/>
      </g>
     </g>
    </g>
    <g id="ytick_27">
     <g id="line2d_55">
      <g>
       <use style="stroke:#000000;stroke-width:0.6;" x="133.543438" xlink:href="#meb95086211" y="337.731184"/>
      </g>
     </g>
    </g>
    <g id="ytick_28">
     <g id="line2d_56">
      <g>
       <use style="stroke:#000000;stroke-width:0.6;" x="133.543438" xlink:href="#meb95086211" y="363.480658"/>
      </g>
     </g>
    </g>
    <g id="ytick_29">
     <g id="line2d_57">
      <g>
       <use style="stroke:#000000;stroke-width:0.6;" x="133.543438" xlink:href="#meb95086211" y="376.355395"/>
      </g>
     </g>
    </g>
    <g id="ytick_30">
     <g id="line2d_58">
      <g>
       <use style="stroke:#000000;stroke-width:0.6;" x="133.543438" xlink:href="#meb95086211" y="389.230132"/>
      </g>
     </g>
    </g>
    <g id="ytick_31">
     <g id="line2d_59">
      <g>
       <use style="stroke:#000000;stroke-width:0.6;" x="133.543438" xlink:href="#meb95086211" y="402.104868"/>
      </g>
     </g>
    </g>
    <g id="ytick_32">
     <g id="line2d_60">
      <g>
       <use style="stroke:#000000;stroke-width:0.6;" x="133.543438" xlink:href="#meb95086211" y="427.854342"/>
      </g>
     </g>
    </g>
    <g id="ytick_33">
     <g id="line2d_61">
      <g>
       <use style="stroke:#000000;stroke-width:0.6;" x="133.543438" xlink:href="#meb95086211" y="440.729079"/>
      </g>
     </g>
    </g>
    <g id="ytick_34">
     <g id="line2d_62">
      <g>
       <use style="stroke:#000000;stroke-width:0.6;" x="133.543438" xlink:href="#meb95086211" y="453.603816"/>
      </g>
     </g>
    </g>
    <g id="ytick_35">
     <g id="line2d_63">
      <g>
       <use style="stroke:#000000;stroke-width:0.6;" x="133.543438" xlink:href="#meb95086211" y="466.478553"/>
      </g>
     </g>
    </g>
    <g id="ytick_36">
     <g id="line2d_64">
      <g>
       <use style="stroke:#000000;stroke-width:0.6;" x="133.543438" xlink:href="#meb95086211" y="492.228026"/>
      </g>
     </g>
    </g>
    <g id="ytick_37">
     <g id="line2d_65">
      <g>
       <use style="stroke:#000000;stroke-width:0.6;" x="133.543438" xlink:href="#meb95086211" y="505.102763"/>
      </g>
     </g>
    </g>
   </g>
   <g id="line2d_66">
    <path clip-path="url(#p6ed06a240d)" d="M 133.543438 517.9775 
L 133.543438 126.5855 
" style="fill:none;stroke:#d3d3d3;stroke-linecap:square;stroke-width:1.5;"/>
   </g>
   <g id="line2d_67">
    <path clip-path="url(#p6ed06a240d)" style="fill:none;stroke:#d3d3d3;stroke-linecap:square;stroke-width:1.5;"/>
   </g>
   <g id="patch_2">
    <path clip-path="url(#p6ed06a240d)" d="M 133.543438 73.799079 
L 147.493437 73.799079 
L 147.493437 112.423289 
L 133.543438 112.423289 
z
" style="fill:#008080;"/>
   </g>
   <g id="patch_3">
    <path clip-path="url(#p6ed06a240d)" d="M 133.543438 138.172763 
L 151.763846 138.172763 
L 151.763846 176.796974 
L 133.543438 176.796974 
z
" style="fill:#008080;"/>
   </g>
   <g id="patch_4">
    <path clip-path="url(#p6ed06a240d)" d="M 133.543438 202.546447 
L 217.997492 202.546447 
L 217.997492 241.170658 
L 133.543438 241.170658 
z
" style="fill:#008080;"/>
   </g>
   <g id="patch_5">
    <path clip-path="url(#p6ed06a240d)" d="M 133.543438 266.920132 
L 197.314866 266.920132 
L 197.314866 305.544342 
L 133.543438 305.544342 
z
" style="fill:#008080;"/>
   </g>
   <g id="patch_6">
    <path clip-path="url(#p6ed06a240d)" d="M 133.543438 331.293816 
L 434.54458 331.293816 
L 434.54458 369.918026 
L 133.543438 369.918026 
z
" style="fill:#008080;"/>
   </g>
   <g id="patch_7">
    <path clip-path="url(#p6ed06a240d)" d="M 133.543438 395.6675 
L 738.148404 395.6675 
L 738.148404 434.291711 
L 133.543438 434.291711 
z
" style="fill:#008080;"/>
   </g>
   <g id="patch_8">
    <path clip-path="url(#p6ed06a240d)" d="M 133.543438 460.041184 
L 893.163327 460.041184 
L 893.163327 498.665395 
L 133.543438 498.665395 
z
" style="fill:#008080;"/>
   </g>
   <g id="patch_9">
    <path clip-path="url(#p6ed06a240d)" d="M 147.493437 73.799079 
L 217.243437 73.799079 
L 217.243437 112.423289 
L 147.493437 112.423289 
z
" style="fill:#ff7f50;"/>
   </g>
   <g id="patch_10">
    <path clip-path="url(#p6ed06a240d)" d="M 151.763846 138.172763 
L 206.42507 138.172763 
L 206.42507 176.796974 
L 151.763846 176.796974 
z
" style="fill:#ff7f50;"/>
   </g>
   <g id="patch_11">
    <path clip-path="url(#p6ed06a240d)" d="M 217.997492 202.546447 
L 302.451546 202.546447 
L 302.451546 241.170658 
L 217.997492 241.170658 
z
" style="fill:#ff7f50;"/>
   </g>
   <g id="patch_12">
    <path clip-path="url(#p6ed06a240d)" d="M 133.543438 266.920132 
L 133.543438 266.920132 
L 133.543438 305.544342 
L 133.543438 305.544342 
z
" style="fill:#ff7f50;"/>
   </g>
   <g id="patch_13">
    <path clip-path="url(#p6ed06a240d)" d="M 434.54458 331.293816 
L 485.561723 331.293816 
L 485.561723 369.918026 
L 434.54458 369.918026 
z
" style="fill:#ff7f50;"/>
   </g>
   <g id="patch_14">
    <path clip-path="url(#p6ed06a240d)" d="M 738.148404 395.6675 
L 766.363302 395.6675 
L 766.363302 434.291711 
L 738.148404 434.291711 
z
" style="fill:#ff7f50;"/>
   </g>
   <g id="patch_15">
    <path clip-path="url(#p6ed06a240d)" d="M 893.163327 460.041184 
L 907.961117 460.041184 
L 907.961117 498.665395 
L 893.163327 498.665395 
z
" style="fill:#ff7f50;"/>
   </g>
   <g id="patch_16">
    <path clip-path="url(#p6ed06a240d)" d="M 217.243437 73.799079 
L 314.893438 73.799079 
L 314.893438 112.423289 
L 217.243437 112.423289 
z
" style="fill:#ffe4e1;"/>
   </g>
   <g id="patch_17">
    <path clip-path="url(#p6ed06a240d)" d="M 206.42507 138.172763 
L 279.306703 138.172763 
L 279.306703 176.796974 
L 206.42507 176.796974 
z
" style="fill:#ffe4e1;"/>
   </g>
   <g id="patch_18">
    <path clip-path="url(#p6ed06a240d)" d="M 302.451546 202.546447 
L 362.77587 202.546447 
L 362.77587 241.170658 
L 302.451546 241.170658 
z
" style="fill:#ffe4e1;"/>
   </g>
   <g id="patch_19">
    <path clip-path="url(#p6ed06a240d)" d="M 133.543438 266.920132 
L 133.543438 266.920132 
L 133.543438 305.544342 
L 133.543438 305.544342 
z
" style="fill:#ffe4e1;"/>
   </g>
   <g id="patch_20">
    <path clip-path="url(#p6ed06a240d)" d="M 485.561723 331.293816 
L 511.070295 331.293816 
L 511.070295 369.918026 
L 485.561723 369.918026 
z
" style="fill:#ffe4e1;"/>
   </g>
   <g id="patch_21">
    <path clip-path="url(#p6ed06a240d)" d="M 766.363302 395.6675 
L 770.394002 395.6675 
L 770.394002 434.291711 
L 766.363302 434.291711 
z
" style="fill:#ffe4e1;"/>
   </g>
   <g id="patch_22">
    <path clip-path="url(#p6ed06a240d)" d="M 907.961117 460.041184 
L 922.758907 460.041184 
L 922.758907 498.665395 
L 907.961117 498.665395 
z
" style="fill:#ffe4e1;"/>
   </g>
   <g id="patch_23">
    <path clip-path="url(#p6ed06a240d)" d="M 314.893438 73.799079 
L 328.843437 73.799079 
L 328.843437 112.423289 
L 314.893438 112.423289 
z
" style="fill:#deb887;"/>
   </g>
   <g id="patch_24">
    <path clip-path="url(#p6ed06a240d)" d="M 279.306703 138.172763 
L 315.747519 138.172763 
L 315.747519 176.796974 
L 279.306703 176.796974 
z
" style="fill:#deb887;"/>
   </g>
   <g id="patch_25">
    <path clip-path="url(#p6ed06a240d)" d="M 362.77587 202.546447 
L 447.229924 202.546447 
L 447.229924 241.170658 
L 362.77587 241.170658 
z
" style="fill:#deb887;"/>
   </g>
   <g id="patch_26">
    <path clip-path="url(#p6ed06a240d)" d="M 133.543438 266.920132 
L 133.543438 266.920132 
L 133.543438 305.544342 
L 133.543438 305.544342 
z
" style="fill:#deb887;"/>
   </g>
   <g id="patch_27">
    <path clip-path="url(#p6ed06a240d)" d="M 511.070295 331.293816 
L 531.477152 331.293816 
L 531.477152 369.918026 
L 511.070295 369.918026 
z
" style="fill:#deb887;"/>
   </g>
   <g id="patch_28">
    <path clip-path="url(#p6ed06a240d)" d="M 770.394002 395.6675 
L 792.562851 395.6675 
L 792.562851 434.291711 
L 770.394002 434.291711 
z
" style="fill:#deb887;"/>
   </g>
   <g id="patch_29">
    <path clip-path="url(#p6ed06a240d)" d="M 133.543438 460.041184 
L 133.543438 460.041184 
L 133.543438 498.665395 
L 133.543438 498.665395 
z
" style="fill:#deb887;"/>
   </g>
   <g id="patch_30">
    <path clip-path="url(#p6ed06a240d)" d="M 328.843437 73.799079 
L 356.743437 73.799079 
L 356.743437 112.423289 
L 328.843437 112.423289 
z
" style="fill:#8fbc8f;"/>
   </g>
   <g id="patch_31">
    <path clip-path="url(#p6ed06a240d)" d="M 315.747519 138.172763 
L 333.967927 138.172763 
L 333.967927 176.796974 
L 315.747519 176.796974 
z
" style="fill:#8fbc8f;"/>
   </g>
   <g id="patch_32">
    <path clip-path="url(#p6ed06a240d)" d="M 447.229924 202.546447 
L 459.294789 202.546447 
L 459.294789 241.170658 
L 447.229924 241.170658 
z
" style="fill:#8fbc8f;"/>
   </g>
   <g id="patch_33">
    <path clip-path="url(#p6ed06a240d)" d="M 133.543438 266.920132 
L 133.543438 266.920132 
L 133.543438 305.544342 
L 133.543438 305.544342 
z
" style="fill:#8fbc8f;"/>
   </g>
   <g id="patch_34">
    <path clip-path="url(#p6ed06a240d)" d="M 531.477152 331.293816 
L 572.290866 331.293816 
L 572.290866 369.918026 
L 531.477152 369.918026 
z
" style="fill:#8fbc8f;"/>
   </g>
   <g id="patch_35">
    <path clip-path="url(#p6ed06a240d)" d="M 792.562851 395.6675 
L 804.65495 395.6675 
L 804.65495 434.291711 
L 792.562851 434.291711 
z
" style="fill:#8fbc8f;"/>
   </g>
   <g id="patch_36">
    <path clip-path="url(#p6ed06a240d)" d="M 922.758907 460.041184 
L 932.6241 460.041184 
L 932.6241 498.665395 
L 922.758907 498.665395 
z
" style="fill:#8fbc8f;"/>
   </g>
   <g id="patch_37">
    <path clip-path="url(#p6ed06a240d)" d="M 356.743438 73.799079 
L 370.693438 73.799079 
L 370.693438 112.423289 
L 356.743438 112.423289 
z
" style="fill:#5f9ea0;"/>
   </g>
   <g id="patch_38">
    <path clip-path="url(#p6ed06a240d)" d="M 333.967927 138.172763 
L 388.629152 138.172763 
L 388.629152 176.796974 
L 333.967927 176.796974 
z
" style="fill:#5f9ea0;"/>
   </g>
   <g id="patch_39">
    <path clip-path="url(#p6ed06a240d)" d="M 459.294789 202.546447 
L 471.359654 202.546447 
L 471.359654 241.170658 
L 459.294789 241.170658 
z
" style="fill:#5f9ea0;"/>
   </g>
   <g id="patch_40">
    <path clip-path="url(#p6ed06a240d)" d="M 133.543438 266.920132 
L 133.543438 266.920132 
L 133.543438 305.544342 
L 133.543438 305.544342 
z
" style="fill:#5f9ea0;"/>
   </g>
   <g id="patch_41">
    <path clip-path="url(#p6ed06a240d)" d="M 572.290866 331.293816 
L 602.901152 331.293816 
L 602.901152 369.918026 
L 572.290866 369.918026 
z
" style="fill:#5f9ea0;"/>
   </g>
   <g id="patch_42">
    <path clip-path="url(#p6ed06a240d)" d="M 804.65495 395.6675 
L 818.762399 395.6675 
L 818.762399 434.291711 
L 804.65495 434.291711 
z
" style="fill:#5f9ea0;"/>
   </g>
   <g id="patch_43">
    <path clip-path="url(#p6ed06a240d)" d="M 932.6241 460.041184 
L 937.556697 460.041184 
L 937.556697 498.665395 
L 932.6241 498.665395 
z
" style="fill:#5f9ea0;"/>
   </g>
   <g id="patch_44">
    <path clip-path="url(#p6ed06a240d)" d="M 133.543438 73.799079 
L 133.543438 73.799079 
L 133.543438 112.423289 
L 133.543438 112.423289 
z
" style="fill:#808080;"/>
   </g>
   <g id="patch_45">
    <path clip-path="url(#p6ed06a240d)" d="M 388.629152 138.172763 
L 425.069968 138.172763 
L 425.069968 176.796974 
L 388.629152 176.796974 
z
" style="fill:#808080;"/>
   </g>
   <g id="patch_46">
    <path clip-path="url(#p6ed06a240d)" d="M 471.359654 202.546447 
L 519.619113 202.546447 
L 519.619113 241.170658 
L 471.359654 241.170658 
z
" style="fill:#808080;"/>
   </g>
   <g id="patch_47">
    <path clip-path="url(#p6ed06a240d)" d="M 133.543438 266.920132 
L 133.543438 266.920132 
L 133.543438 305.544342 
L 133.543438 305.544342 
z
" style="fill:#808080;"/>
   </g>
   <g id="patch_48">
    <path clip-path="url(#p6ed06a240d)" d="M 602.901152 331.293816 
L 613.10458 331.293816 
L 613.10458 369.918026 
L 602.901152 369.918026 
z
" style="fill:#808080;"/>
   </g>
   <g id="patch_49">
    <path clip-path="url(#p6ed06a240d)" d="M 818.762399 395.6675 
L 834.885198 395.6675 
L 834.885198 434.291711 
L 818.762399 434.291711 
z
" style="fill:#808080;"/>
   </g>
   <g id="patch_50">
    <path clip-path="url(#p6ed06a240d)" d="M 133.543438 460.041184 
L 133.543438 460.041184 
L 133.543438 498.665395 
L 133.543438 498.665395 
z
" style="fill:#808080;"/>
   </g>
   <g id="patch_51">
    <path clip-path="url(#p6ed06a240d)" d="M 133.543438 73.799079 
L 133.543438 73.799079 
L 133.543438 112.423289 
L 133.543438 112.423289 
z
" style="fill:#bc8f8f;"/>
   </g>
   <g id="patch_52">
    <path clip-path="url(#p6ed06a240d)" d="M 133.543438 138.172763 
L 133.543438 138.172763 
L 133.543438 176.796974 
L 133.543438 176.796974 
z
" style="fill:#bc8f8f;"/>
   </g>
   <g id="patch_53">
    <path clip-path="url(#p6ed06a240d)" d="M 519.619113 202.546447 
L 543.748843 202.546447 
L 543.748843 241.170658 
L 519.619113 241.170658 
z
" style="fill:#bc8f8f;"/>
   </g>
   <g id="patch_54">
    <path clip-path="url(#p6ed06a240d)" d="M 133.543438 266.920132 
L 133.543438 266.920132 
L 133.543438 305.544342 
L 133.543438 305.544342 
z
" style="fill:#bc8f8f;"/>
   </g>
   <g id="patch_55">
    <path clip-path="url(#p6ed06a240d)" d="M 613.10458 331.293816 
L 633.511437 331.293816 
L 633.511437 369.918026 
L 613.10458 369.918026 
z
" style="fill:#bc8f8f;"/>
   </g>
   <g id="patch_56">
    <path clip-path="url(#p6ed06a240d)" d="M 834.885198 395.6675 
L 846.977298 395.6675 
L 846.977298 434.291711 
L 834.885198 434.291711 
z
" style="fill:#bc8f8f;"/>
   </g>
   <g id="patch_57">
    <path clip-path="url(#p6ed06a240d)" d="M 133.543438 460.041184 
L 133.543438 460.041184 
L 133.543438 498.665395 
L 133.543438 498.665395 
z
" style="fill:#bc8f8f;"/>
   </g>
   <g id="patch_58">
    <path clip-path="url(#p6ed06a240d)" d="M 370.693437 73.799079 
L 384.643437 73.799079 
L 384.643437 112.423289 
L 370.693437 112.423289 
z
" style="fill:#cd5c5c;"/>
   </g>
   <g id="patch_59">
    <path clip-path="url(#p6ed06a240d)" d="M 133.543438 138.172763 
L 133.543438 138.172763 
L 133.543438 176.796974 
L 133.543438 176.796974 
z
" style="fill:#cd5c5c;"/>
   </g>
   <g id="patch_60">
    <path clip-path="url(#p6ed06a240d)" d="M 543.748843 202.546447 
L 579.943438 202.546447 
L 579.943438 241.170658 
L 543.748843 241.170658 
z
" style="fill:#cd5c5c;"/>
   </g>
   <g id="patch_61">
    <path clip-path="url(#p6ed06a240d)" d="M 133.543438 266.920132 
L 133.543438 266.920132 
L 133.543438 305.544342 
L 133.543438 305.544342 
z
" style="fill:#cd5c5c;"/>
   </g>
   <g id="patch_62">
    <path clip-path="url(#p6ed06a240d)" d="M 633.511437 331.293816 
L 643.714866 331.293816 
L 643.714866 369.918026 
L 633.511437 369.918026 
z
" style="fill:#cd5c5c;"/>
   </g>
   <g id="patch_63">
    <path clip-path="url(#p6ed06a240d)" d="M 846.977298 395.6675 
L 855.038697 395.6675 
L 855.038697 434.291711 
L 846.977298 434.291711 
z
" style="fill:#cd5c5c;"/>
   </g>
   <g id="patch_64">
    <path clip-path="url(#p6ed06a240d)" d="M 133.543438 460.041184 
L 133.543438 460.041184 
L 133.543438 498.665395 
L 133.543438 498.665395 
z
" style="fill:#cd5c5c;"/>
   </g>
   <g id="patch_65">
    <path clip-path="url(#p6ed06a240d)" d="M 384.643438 73.799079 
L 398.593437 73.799079 
L 398.593437 112.423289 
L 384.643438 112.423289 
z
" style="fill:#db7093;"/>
   </g>
   <g id="patch_66">
    <path clip-path="url(#p6ed06a240d)" d="M 425.069968 138.172763 
L 443.290376 138.172763 
L 443.290376 176.796974 
L 425.069968 176.796974 
z
" style="fill:#db7093;"/>
   </g>
   <g id="patch_67">
    <path clip-path="url(#p6ed06a240d)" d="M 579.943438 202.546447 
L 604.073167 202.546447 
L 604.073167 241.170658 
L 579.943438 241.170658 
z
" style="fill:#db7093;"/>
   </g>
   <g id="patch_68">
    <path clip-path="url(#p6ed06a240d)" d="M 133.543438 266.920132 
L 133.543438 266.920132 
L 133.543438 305.544342 
L 133.543438 305.544342 
z
" style="fill:#db7093;"/>
   </g>
   <g id="patch_69">
    <path clip-path="url(#p6ed06a240d)" d="M 643.714866 331.293816 
L 653.918295 331.293816 
L 653.918295 369.918026 
L 643.714866 369.918026 
z
" style="fill:#db7093;"/>
   </g>
   <g id="patch_70">
    <path clip-path="url(#p6ed06a240d)" d="M 855.038697 395.6675 
L 857.054047 395.6675 
L 857.054047 434.291711 
L 855.038697 434.291711 
z
" style="fill:#db7093;"/>
   </g>
   <g id="patch_71">
    <path clip-path="url(#p6ed06a240d)" d="M 133.543438 460.041184 
L 133.543438 460.041184 
L 133.543438 498.665395 
L 133.543438 498.665395 
z
" style="fill:#db7093;"/>
   </g>
   <g id="patch_72">
    <path clip-path="url(#p6ed06a240d)" d="M 398.593437 73.799079 
L 412.543437 73.799079 
L 412.543437 112.423289 
L 398.593437 112.423289 
z
" style="fill:#7b68ee;"/>
   </g>
   <g id="patch_73">
    <path clip-path="url(#p6ed06a240d)" d="M 133.543438 138.172763 
L 133.543438 138.172763 
L 133.543438 176.796974 
L 133.543438 176.796974 
z
" style="fill:#7b68ee;"/>
   </g>
   <g id="patch_74">
    <path clip-path="url(#p6ed06a240d)" d="M 604.073167 202.546447 
L 616.138032 202.546447 
L 616.138032 241.170658 
L 604.073167 241.170658 
z
" style="fill:#7b68ee;"/>
   </g>
   <g id="patch_75">
    <path clip-path="url(#p6ed06a240d)" d="M 133.543438 266.920132 
L 133.543438 266.920132 
L 133.543438 305.544342 
L 133.543438 305.544342 
z
" style="fill:#7b68ee;"/>
   </g>
   <g id="patch_76">
    <path clip-path="url(#p6ed06a240d)" d="M 653.918295 331.293816 
L 659.020009 331.293816 
L 659.020009 369.918026 
L 653.918295 369.918026 
z
" style="fill:#7b68ee;"/>
   </g>
   <g id="patch_77">
    <path clip-path="url(#p6ed06a240d)" d="M 857.054047 395.6675 
L 861.084747 395.6675 
L 861.084747 434.291711 
L 857.054047 434.291711 
z
" style="fill:#7b68ee;"/>
   </g>
   <g id="patch_78">
    <path clip-path="url(#p6ed06a240d)" d="M 937.556697 460.041184 
L 942.489294 460.041184 
L 942.489294 498.665395 
L 937.556697 498.665395 
z
" style="fill:#7b68ee;"/>
   </g>
   <g id="patch_79">
    <path clip-path="url(#p6ed06a240d)" d="M 412.543437 73.799079 
L 426.493437 73.799079 
L 426.493437 112.423289 
L 412.543437 112.423289 
z
" style="fill:#87ceeb;"/>
   </g>
   <g id="patch_80">
    <path clip-path="url(#p6ed06a240d)" d="M 133.543438 138.172763 
L 133.543438 138.172763 
L 133.543438 176.796974 
L 133.543438 176.796974 
z
" style="fill:#87ceeb;"/>
   </g>
   <g id="patch_81">
    <path clip-path="url(#p6ed06a240d)" d="M 133.543438 202.546447 
L 133.543438 202.546447 
L 133.543438 241.170658 
L 133.543438 241.170658 
z
" style="fill:#87ceeb;"/>
   </g>
   <g id="patch_82">
    <path clip-path="url(#p6ed06a240d)" d="M 133.543438 266.920132 
L 133.543438 266.920132 
L 133.543438 305.544342 
L 133.543438 305.544342 
z
" style="fill:#87ceeb;"/>
   </g>
   <g id="patch_83">
    <path clip-path="url(#p6ed06a240d)" d="M 659.020009 331.293816 
L 664.121723 331.293816 
L 664.121723 369.918026 
L 659.020009 369.918026 
z
" style="fill:#87ceeb;"/>
   </g>
   <g id="patch_84">
    <path clip-path="url(#p6ed06a240d)" d="M 861.084747 395.6675 
L 865.115447 395.6675 
L 865.115447 434.291711 
L 861.084747 434.291711 
z
" style="fill:#87ceeb;"/>
   </g>
   <g id="patch_85">
    <path clip-path="url(#p6ed06a240d)" d="M 942.489294 460.041184 
L 952.354487 460.041184 
L 952.354487 498.665395 
L 942.489294 498.665395 
z
" style="fill:#87ceeb;"/>
   </g>
   <g id="patch_86">
    <path clip-path="url(#p6ed06a240d)" d="M 133.543438 73.799079 
L 133.543438 73.799079 
L 133.543438 112.423289 
L 133.543438 112.423289 
z
" style="fill:#1e90ff;"/>
   </g>
   <g id="patch_87">
    <path clip-path="url(#p6ed06a240d)" d="M 133.543438 138.172763 
L 133.543438 138.172763 
L 133.543438 176.796974 
L 133.543438 176.796974 
z
" style="fill:#1e90ff;"/>
   </g>
   <g id="patch_88">
    <path clip-path="url(#p6ed06a240d)" d="M 616.138032 202.546447 
L 628.202897 202.546447 
L 628.202897 241.170658 
L 616.138032 241.170658 
z
" style="fill:#1e90ff;"/>
   </g>
   <g id="patch_89">
    <path clip-path="url(#p6ed06a240d)" d="M 133.543438 266.920132 
L 133.543438 266.920132 
L 133.543438 305.544342 
L 133.543438 305.544342 
z
" style="fill:#1e90ff;"/>
   </g>
   <g id="patch_90">
    <path clip-path="url(#p6ed06a240d)" d="M 133.543438 331.293816 
L 133.543438 331.293816 
L 133.543438 369.918026 
L 133.543438 369.918026 
z
" style="fill:#1e90ff;"/>
   </g>
   <g id="patch_91">
    <path clip-path="url(#p6ed06a240d)" d="M 865.115447 395.6675 
L 867.130796 395.6675 
L 867.130796 434.291711 
L 865.115447 434.291711 
z
" style="fill:#1e90ff;"/>
   </g>
   <g id="patch_92">
    <path clip-path="url(#p6ed06a240d)" d="M 952.354487 460.041184 
L 957.287084 460.041184 
L 957.287084 498.665395 
L 952.354487 498.665395 
z
" style="fill:#1e90ff;"/>
   </g>
   <g id="patch_93">
    <path clip-path="url(#p6ed06a240d)" d="M 426.493438 73.799079 
L 440.443438 73.799079 
L 440.443438 112.423289 
L 426.493438 112.423289 
z
" style="fill:#4682b4;"/>
   </g>
   <g id="patch_94">
    <path clip-path="url(#p6ed06a240d)" d="M 443.290376 138.172763 
L 461.510784 138.172763 
L 461.510784 176.796974 
L 443.290376 176.796974 
z
" style="fill:#4682b4;"/>
   </g>
   <g id="patch_95">
    <path clip-path="url(#p6ed06a240d)" d="M 133.543438 202.546447 
L 133.543438 202.546447 
L 133.543438 241.170658 
L 133.543438 241.170658 
z
" style="fill:#4682b4;"/>
   </g>
   <g id="patch_96">
    <path clip-path="url(#p6ed06a240d)" d="M 133.543438 266.920132 
L 133.543438 266.920132 
L 133.543438 305.544342 
L 133.543438 305.544342 
z
" style="fill:#4682b4;"/>
   </g>
   <g id="patch_97">
    <path clip-path="url(#p6ed06a240d)" d="M 133.543438 331.293816 
L 133.543438 331.293816 
L 133.543438 369.918026 
L 133.543438 369.918026 
z
" style="fill:#4682b4;"/>
   </g>
   <g id="patch_98">
    <path clip-path="url(#p6ed06a240d)" d="M 133.543438 395.6675 
L 133.543438 395.6675 
L 133.543438 434.291711 
L 133.543438 434.291711 
z
" style="fill:#4682b4;"/>
   </g>
   <g id="patch_99">
    <path clip-path="url(#p6ed06a240d)" d="M 957.287084 460.041184 
L 962.219681 460.041184 
L 962.219681 498.665395 
L 957.287084 498.665395 
z
" style="fill:#4682b4;"/>
   </g>
   <g id="patch_100">
    <path clip-path="url(#p6ed06a240d)" d="M 440.443437 73.799079 
L 789.193437 73.799079 
L 789.193437 112.423289 
L 440.443437 112.423289 
z
" style="fill:#c0c0c0;"/>
   </g>
   <g id="patch_101">
    <path clip-path="url(#p6ed06a240d)" d="M 461.510784 138.172763 
L 698.376091 138.172763 
L 698.376091 176.796974 
L 461.510784 176.796974 
z
" style="fill:#c0c0c0;"/>
   </g>
   <g id="patch_102">
    <path clip-path="url(#p6ed06a240d)" d="M 628.202897 202.546447 
L 869.500194 202.546447 
L 869.500194 241.170658 
L 628.202897 241.170658 
z
" style="fill:#c0c0c0;"/>
   </g>
   <g id="patch_103">
    <path clip-path="url(#p6ed06a240d)" d="M 197.314866 266.920132 
L 516.172009 266.920132 
L 516.172009 305.544342 
L 197.314866 305.544342 
z
" style="fill:#c0c0c0;"/>
   </g>
   <g id="patch_104">
    <path clip-path="url(#p6ed06a240d)" d="M 664.121723 331.293816 
L 842.681723 331.293816 
L 842.681723 369.918026 
L 664.121723 369.918026 
z
" style="fill:#c0c0c0;"/>
   </g>
   <g id="patch_105">
    <path clip-path="url(#p6ed06a240d)" d="M 867.130796 395.6675 
L 939.683392 395.6675 
L 939.683392 434.291711 
L 867.130796 434.291711 
z
" style="fill:#c0c0c0;"/>
   </g>
   <g id="patch_106">
    <path clip-path="url(#p6ed06a240d)" d="M 962.219681 460.041184 
L 1001.680454 460.041184 
L 1001.680454 498.665395 
L 962.219681 498.665395 
z
" style="fill:#c0c0c0;"/>
   </g>
   <g id="patch_107">
    <path clip-path="url(#p6ed06a240d)" d="M 789.193437 73.799079 
L 1026.343437 73.799079 
L 1026.343437 112.423289 
L 789.193437 112.423289 
z
" style="fill:#708090;"/>
   </g>
   <g id="patch_108">
    <path clip-path="url(#p6ed06a240d)" d="M 698.376091 138.172763 
L 1026.343437 138.172763 
L 1026.343437 176.796974 
L 698.376091 176.796974 
z
" style="fill:#708090;"/>
   </g>
   <g id="patch_109">
    <path clip-path="url(#p6ed06a240d)" d="M 869.500194 202.546447 
L 1026.343437 202.546447 
L 1026.343437 241.170658 
L 869.500194 241.170658 
z
" style="fill:#708090;"/>
   </g>
   <g id="patch_110">
    <path clip-path="url(#p6ed06a240d)" d="M 516.172009 266.920132 
L 1026.343437 266.920132 
L 1026.343437 305.544342 
L 516.172009 305.544342 
z
" style="fill:#708090;"/>
   </g>
   <g id="patch_111">
    <path clip-path="url(#p6ed06a240d)" d="M 842.681723 331.293816 
L 1026.343437 331.293816 
L 1026.343437 369.918026 
L 842.681723 369.918026 
z
" style="fill:#708090;"/>
   </g>
   <g id="patch_112">
    <path clip-path="url(#p6ed06a240d)" d="M 939.683392 395.6675 
L 1026.343437 395.6675 
L 1026.343437 434.291711 
L 939.683392 434.291711 
z
" style="fill:#708090;"/>
   </g>
   <g id="patch_113">
    <path clip-path="url(#p6ed06a240d)" d="M 1001.680454 460.041184 
L 1026.343437 460.041184 
L 1026.343437 498.665395 
L 1001.680454 498.665395 
z
" style="fill:#708090;"/>
   </g>
   <g id="text_15">
    <!-- A avaliação do governo com relação a intenção de voto -->
    <g style="fill:#2f4f4f;" transform="translate(301.47 22.7375)scale(0.2 -0.2)">
     <defs>
      <path d="M 34.1875 63.1875 
L 20.796875 26.90625 
L 47.609375 26.90625 
z
M 28.609375 72.90625 
L 39.796875 72.90625 
L 67.578125 0 
L 57.328125 0 
L 50.6875 18.703125 
L 17.828125 18.703125 
L 11.1875 0 
L 0.78125 0 
z
" id="DejaVuSans-65"/>
      <path d="M 48.78125 52.59375 
L 48.78125 44.1875 
Q 44.96875 46.296875 41.140625 47.34375 
Q 37.3125 48.390625 33.40625 48.390625 
Q 24.65625 48.390625 19.8125 42.84375 
Q 14.984375 37.3125 14.984375 27.296875 
Q 14.984375 17.28125 19.8125 11.734375 
Q 24.65625 6.203125 33.40625 6.203125 
Q 37.3125 6.203125 41.140625 7.25 
Q 44.96875 8.296875 48.78125 10.40625 
L 48.78125 2.09375 
Q 45.015625 0.34375 40.984375 -0.53125 
Q 36.96875 -1.421875 32.421875 -1.421875 
Q 20.0625 -1.421875 12.78125 6.34375 
Q 5.515625 14.109375 5.515625 27.296875 
Q 5.515625 40.671875 12.859375 48.328125 
Q 20.21875 56 33.015625 56 
Q 37.15625 56 41.109375 55.140625 
Q 45.0625 54.296875 48.78125 52.59375 
z
" id="DejaVuSans-99"/>
     </defs>
     <use xlink:href="#DejaVuSans-65"/>
     <use x="68.408203" xlink:href="#DejaVuSans-32"/>
     <use x="100.195312" xlink:href="#DejaVuSans-97"/>
     <use x="161.474609" xlink:href="#DejaVuSans-118"/>
     <use x="220.654297" xlink:href="#DejaVuSans-97"/>
     <use x="281.933594" xlink:href="#DejaVuSans-108"/>
     <use x="309.716797" xlink:href="#DejaVuSans-105"/>
     <use x="337.5" xlink:href="#DejaVuSans-97"/>
     <use x="398.779297" xlink:href="#DejaVuSans-231"/>
     <use x="453.759766" xlink:href="#DejaVuSans-227"/>
     <use x="515.039062" xlink:href="#DejaVuSans-111"/>
     <use x="576.220703" xlink:href="#DejaVuSans-32"/>
     <use x="608.007812" xlink:href="#DejaVuSans-100"/>
     <use x="671.484375" xlink:href="#DejaVuSans-111"/>
     <use x="732.666016" xlink:href="#DejaVuSans-32"/>
     <use x="764.453125" xlink:href="#DejaVuSans-103"/>
     <use x="827.929688" xlink:href="#DejaVuSans-111"/>
     <use x="889.111328" xlink:href="#DejaVuSans-118"/>
     <use x="948.291016" xlink:href="#DejaVuSans-101"/>
     <use x="1009.814453" xlink:href="#DejaVuSans-114"/>
     <use x="1049.177734" xlink:href="#DejaVuSans-110"/>
     <use x="1112.556641" xlink:href="#DejaVuSans-111"/>
     <use x="1173.738281" xlink:href="#DejaVuSans-32"/>
     <use x="1205.525391" xlink:href="#DejaVuSans-99"/>
     <use x="1260.505859" xlink:href="#DejaVuSans-111"/>
     <use x="1321.6875" xlink:href="#DejaVuSans-109"/>
     <use x="1419.099609" xlink:href="#DejaVuSans-32"/>
     <use x="1450.886719" xlink:href="#DejaVuSans-114"/>
     <use x="1489.75" xlink:href="#DejaVuSans-101"/>
     <use x="1551.273438" xlink:href="#DejaVuSans-108"/>
     <use x="1579.056641" xlink:href="#DejaVuSans-97"/>
     <use x="1640.335938" xlink:href="#DejaVuSans-231"/>
     <use x="1695.316406" xlink:href="#DejaVuSans-227"/>
     <use x="1756.595703" xlink:href="#DejaVuSans-111"/>
     <use x="1817.777344" xlink:href="#DejaVuSans-32"/>
     <use x="1849.564453" xlink:href="#DejaVuSans-97"/>
     <use x="1910.84375" xlink:href="#DejaVuSans-32"/>
     <use x="1942.630859" xlink:href="#DejaVuSans-105"/>
     <use x="1970.414062" xlink:href="#DejaVuSans-110"/>
     <use x="2033.792969" xlink:href="#DejaVuSans-116"/>
     <use x="2073.001953" xlink:href="#DejaVuSans-101"/>
     <use x="2134.525391" xlink:href="#DejaVuSans-110"/>
     <use x="2197.904297" xlink:href="#DejaVuSans-231"/>
     <use x="2252.884766" xlink:href="#DejaVuSans-227"/>
     <use x="2314.164062" xlink:href="#DejaVuSans-111"/>
     <use x="2375.345703" xlink:href="#DejaVuSans-32"/>
     <use x="2407.132812" xlink:href="#DejaVuSans-100"/>
     <use x="2470.609375" xlink:href="#DejaVuSans-101"/>
     <use x="2532.132812" xlink:href="#DejaVuSans-32"/>
     <use x="2563.919922" xlink:href="#DejaVuSans-118"/>
     <use x="2623.099609" xlink:href="#DejaVuSans-111"/>
     <use x="2684.28125" xlink:href="#DejaVuSans-116"/>
     <use x="2723.490234" xlink:href="#DejaVuSans-111"/>
    </g>
   </g>
   <g id="legend_1">
    <g id="patch_114">
     <path d="M 234.125187 688.0055 
L 925.761687 688.0055 
Q 928.641687 688.0055 928.641687 685.1255 
L 928.641687 601.4435 
Q 928.641687 598.5635 925.761687 598.5635 
L 234.125187 598.5635 
Q 231.245187 598.5635 231.245187 601.4435 
L 231.245187 685.1255 
Q 231.245187 688.0055 234.125187 688.0055 
z
" style="fill:#ffffff;opacity:0.8;stroke:#ffffff;stroke-linejoin:miter;"/>
    </g>
    <g id="patch_115">
     <path d="M 237.005187 615.26525 
L 265.805187 615.26525 
L 265.805187 605.18525 
L 237.005187 605.18525 
z
" style="fill:#008080;"/>
    </g>
    <g id="text_16">
     <!-- Candidato 2 -->
     <g style="fill:#708090;" transform="translate(277.325187 615.26525)scale(0.144 -0.144)">
      <defs>
       <path d="M 64.40625 67.28125 
L 64.40625 56.890625 
Q 59.421875 61.53125 53.78125 63.8125 
Q 48.140625 66.109375 41.796875 66.109375 
Q 29.296875 66.109375 22.65625 58.46875 
Q 16.015625 50.828125 16.015625 36.375 
Q 16.015625 21.96875 22.65625 14.328125 
Q 29.296875 6.6875 41.796875 6.6875 
Q 48.140625 6.6875 53.78125 8.984375 
Q 59.421875 11.28125 64.40625 15.921875 
L 64.40625 5.609375 
Q 59.234375 2.09375 53.4375 0.328125 
Q 47.65625 -1.421875 41.21875 -1.421875 
Q 24.65625 -1.421875 15.125 8.703125 
Q 5.609375 18.84375 5.609375 36.375 
Q 5.609375 53.953125 15.125 64.078125 
Q 24.65625 74.21875 41.21875 74.21875 
Q 47.75 74.21875 53.53125 72.484375 
Q 59.328125 70.75 64.40625 67.28125 
z
" id="DejaVuSans-67"/>
      </defs>
      <use xlink:href="#DejaVuSans-67"/>
      <use x="69.824219" xlink:href="#DejaVuSans-97"/>
      <use x="131.103516" xlink:href="#DejaVuSans-110"/>
      <use x="194.482422" xlink:href="#DejaVuSans-100"/>
      <use x="257.958984" xlink:href="#DejaVuSans-105"/>
      <use x="285.742188" xlink:href="#DejaVuSans-100"/>
      <use x="349.21875" xlink:href="#DejaVuSans-97"/>
      <use x="410.498047" xlink:href="#DejaVuSans-116"/>
      <use x="449.707031" xlink:href="#DejaVuSans-111"/>
      <use x="510.888672" xlink:href="#DejaVuSans-32"/>
      <use x="542.675781" xlink:href="#DejaVuSans-50"/>
     </g>
    </g>
    <g id="patch_116">
     <path d="M 237.005187 636.40175 
L 265.805187 636.40175 
L 265.805187 626.32175 
L 237.005187 626.32175 
z
" style="fill:#ff7f50;"/>
    </g>
    <g id="text_17">
     <!-- Candidato 1 -->
     <g style="fill:#708090;" transform="translate(277.325187 636.40175)scale(0.144 -0.144)">
      <use xlink:href="#DejaVuSans-67"/>
      <use x="69.824219" xlink:href="#DejaVuSans-97"/>
      <use x="131.103516" xlink:href="#DejaVuSans-110"/>
      <use x="194.482422" xlink:href="#DejaVuSans-100"/>
      <use x="257.958984" xlink:href="#DejaVuSans-105"/>
      <use x="285.742188" xlink:href="#DejaVuSans-100"/>
      <use x="349.21875" xlink:href="#DejaVuSans-97"/>
      <use x="410.498047" xlink:href="#DejaVuSans-116"/>
      <use x="449.707031" xlink:href="#DejaVuSans-111"/>
      <use x="510.888672" xlink:href="#DejaVuSans-32"/>
      <use x="542.675781" xlink:href="#DejaVuSans-49"/>
     </g>
    </g>
    <g id="patch_117">
     <path d="M 237.005187 657.53825 
L 265.805187 657.53825 
L 265.805187 647.45825 
L 237.005187 647.45825 
z
" style="fill:#ffe4e1;"/>
    </g>
    <g id="text_18">
     <!-- Candidato 8 -->
     <g style="fill:#708090;" transform="translate(277.325187 657.53825)scale(0.144 -0.144)">
      <use xlink:href="#DejaVuSans-67"/>
      <use x="69.824219" xlink:href="#DejaVuSans-97"/>
      <use x="131.103516" xlink:href="#DejaVuSans-110"/>
      <use x="194.482422" xlink:href="#DejaVuSans-100"/>
      <use x="257.958984" xlink:href="#DejaVuSans-105"/>
      <use x="285.742188" xlink:href="#DejaVuSans-100"/>
      <use x="349.21875" xlink:href="#DejaVuSans-97"/>
      <use x="410.498047" xlink:href="#DejaVuSans-116"/>
      <use x="449.707031" xlink:href="#DejaVuSans-111"/>
      <use x="510.888672" xlink:href="#DejaVuSans-32"/>
      <use x="542.675781" xlink:href="#DejaVuSans-56"/>
     </g>
    </g>
    <g id="patch_118">
     <path d="M 237.005187 678.67475 
L 265.805187 678.67475 
L 265.805187 668.59475 
L 237.005187 668.59475 
z
" style="fill:#deb887;"/>
    </g>
    <g id="text_19">
     <!-- Candidato 5 -->
     <g style="fill:#708090;" transform="translate(277.325187 678.67475)scale(0.144 -0.144)">
      <defs>
       <path d="M 10.796875 72.90625 
L 49.515625 72.90625 
L 49.515625 64.59375 
L 19.828125 64.59375 
L 19.828125 46.734375 
Q 21.96875 47.46875 24.109375 47.828125 
Q 26.265625 48.1875 28.421875 48.1875 
Q 40.625 48.1875 47.75 41.5 
Q 54.890625 34.8125 54.890625 23.390625 
Q 54.890625 11.625 47.5625 5.09375 
Q 40.234375 -1.421875 26.90625 -1.421875 
Q 22.3125 -1.421875 17.546875 -0.640625 
Q 12.796875 0.140625 7.71875 1.703125 
L 7.71875 11.625 
Q 12.109375 9.234375 16.796875 8.0625 
Q 21.484375 6.890625 26.703125 6.890625 
Q 35.15625 6.890625 40.078125 11.328125 
Q 45.015625 15.765625 45.015625 23.390625 
Q 45.015625 31 40.078125 35.4375 
Q 35.15625 39.890625 26.703125 39.890625 
Q 22.75 39.890625 18.8125 39.015625 
Q 14.890625 38.140625 10.796875 36.28125 
z
" id="DejaVuSans-53"/>
      </defs>
      <use xlink:href="#DejaVuSans-67"/>
      <use x="69.824219" xlink:href="#DejaVuSans-97"/>
      <use x="131.103516" xlink:href="#DejaVuSans-110"/>
      <use x="194.482422" xlink:href="#DejaVuSans-100"/>
      <use x="257.958984" xlink:href="#DejaVuSans-105"/>
      <use x="285.742188" xlink:href="#DejaVuSans-100"/>
      <use x="349.21875" xlink:href="#DejaVuSans-97"/>
      <use x="410.498047" xlink:href="#DejaVuSans-116"/>
      <use x="449.707031" xlink:href="#DejaVuSans-111"/>
      <use x="510.888672" xlink:href="#DejaVuSans-32"/>
      <use x="542.675781" xlink:href="#DejaVuSans-53"/>
     </g>
    </g>
    <g id="patch_119">
     <path d="M 393.434188 615.26525 
L 422.234188 615.26525 
L 422.234188 605.18525 
L 393.434188 605.18525 
z
" style="fill:#8fbc8f;"/>
    </g>
    <g id="text_20">
     <!-- Candidato 10 -->
     <g style="fill:#708090;" transform="translate(433.754188 615.26525)scale(0.144 -0.144)">
      <use xlink:href="#DejaVuSans-67"/>
      <use x="69.824219" xlink:href="#DejaVuSans-97"/>
      <use x="131.103516" xlink:href="#DejaVuSans-110"/>
      <use x="194.482422" xlink:href="#DejaVuSans-100"/>
      <use x="257.958984" xlink:href="#DejaVuSans-105"/>
      <use x="285.742188" xlink:href="#DejaVuSans-100"/>
      <use x="349.21875" xlink:href="#DejaVuSans-97"/>
      <use x="410.498047" xlink:href="#DejaVuSans-116"/>
      <use x="449.707031" xlink:href="#DejaVuSans-111"/>
      <use x="510.888672" xlink:href="#DejaVuSans-32"/>
      <use x="542.675781" xlink:href="#DejaVuSans-49"/>
      <use x="606.298828" xlink:href="#DejaVuSans-48"/>
     </g>
    </g>
    <g id="patch_120">
     <path d="M 393.434188 636.40175 
L 422.234188 636.40175 
L 422.234188 626.32175 
L 393.434188 626.32175 
z
" style="fill:#5f9ea0;"/>
    </g>
    <g id="text_21">
     <!-- Candidato 9 -->
     <g style="fill:#708090;" transform="translate(433.754188 636.40175)scale(0.144 -0.144)">
      <defs>
       <path d="M 10.984375 1.515625 
L 10.984375 10.5 
Q 14.703125 8.734375 18.5 7.8125 
Q 22.3125 6.890625 25.984375 6.890625 
Q 35.75 6.890625 40.890625 13.453125 
Q 46.046875 20.015625 46.78125 33.40625 
Q 43.953125 29.203125 39.59375 26.953125 
Q 35.25 24.703125 29.984375 24.703125 
Q 19.046875 24.703125 12.671875 31.3125 
Q 6.296875 37.9375 6.296875 49.421875 
Q 6.296875 60.640625 12.9375 67.421875 
Q 19.578125 74.21875 30.609375 74.21875 
Q 43.265625 74.21875 49.921875 64.515625 
Q 56.59375 54.828125 56.59375 36.375 
Q 56.59375 19.140625 48.40625 8.859375 
Q 40.234375 -1.421875 26.421875 -1.421875 
Q 22.703125 -1.421875 18.890625 -0.6875 
Q 15.09375 0.046875 10.984375 1.515625 
z
M 30.609375 32.421875 
Q 37.25 32.421875 41.125 36.953125 
Q 45.015625 41.5 45.015625 49.421875 
Q 45.015625 57.28125 41.125 61.84375 
Q 37.25 66.40625 30.609375 66.40625 
Q 23.96875 66.40625 20.09375 61.84375 
Q 16.21875 57.28125 16.21875 49.421875 
Q 16.21875 41.5 20.09375 36.953125 
Q 23.96875 32.421875 30.609375 32.421875 
z
" id="DejaVuSans-57"/>
      </defs>
      <use xlink:href="#DejaVuSans-67"/>
      <use x="69.824219" xlink:href="#DejaVuSans-97"/>
      <use x="131.103516" xlink:href="#DejaVuSans-110"/>
      <use x="194.482422" xlink:href="#DejaVuSans-100"/>
      <use x="257.958984" xlink:href="#DejaVuSans-105"/>
      <use x="285.742188" xlink:href="#DejaVuSans-100"/>
      <use x="349.21875" xlink:href="#DejaVuSans-97"/>
      <use x="410.498047" xlink:href="#DejaVuSans-116"/>
      <use x="449.707031" xlink:href="#DejaVuSans-111"/>
      <use x="510.888672" xlink:href="#DejaVuSans-32"/>
      <use x="542.675781" xlink:href="#DejaVuSans-57"/>
     </g>
    </g>
    <g id="patch_121">
     <path d="M 393.434188 657.53825 
L 422.234188 657.53825 
L 422.234188 647.45825 
L 393.434188 647.45825 
z
" style="fill:#808080;"/>
    </g>
    <g id="text_22">
     <!-- Candidato 3 -->
     <g style="fill:#708090;" transform="translate(433.754188 657.53825)scale(0.144 -0.144)">
      <defs>
       <path d="M 40.578125 39.3125 
Q 47.65625 37.796875 51.625 33 
Q 55.609375 28.21875 55.609375 21.1875 
Q 55.609375 10.40625 48.1875 4.484375 
Q 40.765625 -1.421875 27.09375 -1.421875 
Q 22.515625 -1.421875 17.65625 -0.515625 
Q 12.796875 0.390625 7.625 2.203125 
L 7.625 11.71875 
Q 11.71875 9.328125 16.59375 8.109375 
Q 21.484375 6.890625 26.8125 6.890625 
Q 36.078125 6.890625 40.9375 10.546875 
Q 45.796875 14.203125 45.796875 21.1875 
Q 45.796875 27.640625 41.28125 31.265625 
Q 36.765625 34.90625 28.71875 34.90625 
L 20.21875 34.90625 
L 20.21875 43.015625 
L 29.109375 43.015625 
Q 36.375 43.015625 40.234375 45.921875 
Q 44.09375 48.828125 44.09375 54.296875 
Q 44.09375 59.90625 40.109375 62.90625 
Q 36.140625 65.921875 28.71875 65.921875 
Q 24.65625 65.921875 20.015625 65.03125 
Q 15.375 64.15625 9.8125 62.3125 
L 9.8125 71.09375 
Q 15.4375 72.65625 20.34375 73.4375 
Q 25.25 74.21875 29.59375 74.21875 
Q 40.828125 74.21875 47.359375 69.109375 
Q 53.90625 64.015625 53.90625 55.328125 
Q 53.90625 49.265625 50.4375 45.09375 
Q 46.96875 40.921875 40.578125 39.3125 
z
" id="DejaVuSans-51"/>
      </defs>
      <use xlink:href="#DejaVuSans-67"/>
      <use x="69.824219" xlink:href="#DejaVuSans-97"/>
      <use x="131.103516" xlink:href="#DejaVuSans-110"/>
      <use x="194.482422" xlink:href="#DejaVuSans-100"/>
      <use x="257.958984" xlink:href="#DejaVuSans-105"/>
      <use x="285.742188" xlink:href="#DejaVuSans-100"/>
      <use x="349.21875" xlink:href="#DejaVuSans-97"/>
      <use x="410.498047" xlink:href="#DejaVuSans-116"/>
      <use x="449.707031" xlink:href="#DejaVuSans-111"/>
      <use x="510.888672" xlink:href="#DejaVuSans-32"/>
      <use x="542.675781" xlink:href="#DejaVuSans-51"/>
     </g>
    </g>
    <g id="patch_122">
     <path d="M 393.434188 678.67475 
L 422.234188 678.67475 
L 422.234188 668.59475 
L 393.434188 668.59475 
z
" style="fill:#bc8f8f;"/>
    </g>
    <g id="text_23">
     <!-- Candidato 4 -->
     <g style="fill:#708090;" transform="translate(433.754188 678.67475)scale(0.144 -0.144)">
      <use xlink:href="#DejaVuSans-67"/>
      <use x="69.824219" xlink:href="#DejaVuSans-97"/>
      <use x="131.103516" xlink:href="#DejaVuSans-110"/>
      <use x="194.482422" xlink:href="#DejaVuSans-100"/>
      <use x="257.958984" xlink:href="#DejaVuSans-105"/>
      <use x="285.742188" xlink:href="#DejaVuSans-100"/>
      <use x="349.21875" xlink:href="#DejaVuSans-97"/>
      <use x="410.498047" xlink:href="#DejaVuSans-116"/>
      <use x="449.707031" xlink:href="#DejaVuSans-111"/>
      <use x="510.888672" xlink:href="#DejaVuSans-32"/>
      <use x="542.675781" xlink:href="#DejaVuSans-52"/>
     </g>
    </g>
    <g id="patch_123">
     <path d="M 559.025187 615.26525 
L 587.825187 615.26525 
L 587.825187 605.18525 
L 559.025187 605.18525 
z
" style="fill:#cd5c5c;"/>
    </g>
    <g id="text_24">
     <!-- Candidato 6 -->
     <g style="fill:#708090;" transform="translate(599.345187 615.26525)scale(0.144 -0.144)">
      <use xlink:href="#DejaVuSans-67"/>
      <use x="69.824219" xlink:href="#DejaVuSans-97"/>
      <use x="131.103516" xlink:href="#DejaVuSans-110"/>
      <use x="194.482422" xlink:href="#DejaVuSans-100"/>
      <use x="257.958984" xlink:href="#DejaVuSans-105"/>
      <use x="285.742188" xlink:href="#DejaVuSans-100"/>
      <use x="349.21875" xlink:href="#DejaVuSans-97"/>
      <use x="410.498047" xlink:href="#DejaVuSans-116"/>
      <use x="449.707031" xlink:href="#DejaVuSans-111"/>
      <use x="510.888672" xlink:href="#DejaVuSans-32"/>
      <use x="542.675781" xlink:href="#DejaVuSans-54"/>
     </g>
    </g>
    <g id="patch_124">
     <path d="M 559.025187 636.40175 
L 587.825187 636.40175 
L 587.825187 626.32175 
L 559.025187 626.32175 
z
" style="fill:#db7093;"/>
    </g>
    <g id="text_25">
     <!-- Candidato 7 -->
     <g style="fill:#708090;" transform="translate(599.345187 636.40175)scale(0.144 -0.144)">
      <defs>
       <path d="M 8.203125 72.90625 
L 55.078125 72.90625 
L 55.078125 68.703125 
L 28.609375 0 
L 18.3125 0 
L 43.21875 64.59375 
L 8.203125 64.59375 
z
" id="DejaVuSans-55"/>
      </defs>
      <use xlink:href="#DejaVuSans-67"/>
      <use x="69.824219" xlink:href="#DejaVuSans-97"/>
      <use x="131.103516" xlink:href="#DejaVuSans-110"/>
      <use x="194.482422" xlink:href="#DejaVuSans-100"/>
      <use x="257.958984" xlink:href="#DejaVuSans-105"/>
      <use x="285.742188" xlink:href="#DejaVuSans-100"/>
      <use x="349.21875" xlink:href="#DejaVuSans-97"/>
      <use x="410.498047" xlink:href="#DejaVuSans-116"/>
      <use x="449.707031" xlink:href="#DejaVuSans-111"/>
      <use x="510.888672" xlink:href="#DejaVuSans-32"/>
      <use x="542.675781" xlink:href="#DejaVuSans-55"/>
     </g>
    </g>
    <g id="patch_125">
     <path d="M 559.025187 657.53825 
L 587.825187 657.53825 
L 587.825187 647.45825 
L 559.025187 647.45825 
z
" style="fill:#7b68ee;"/>
    </g>
    <g id="text_26">
     <!-- Candidato 14 -->
     <g style="fill:#708090;" transform="translate(599.345187 657.53825)scale(0.144 -0.144)">
      <use xlink:href="#DejaVuSans-67"/>
      <use x="69.824219" xlink:href="#DejaVuSans-97"/>
      <use x="131.103516" xlink:href="#DejaVuSans-110"/>
      <use x="194.482422" xlink:href="#DejaVuSans-100"/>
      <use x="257.958984" xlink:href="#DejaVuSans-105"/>
      <use x="285.742188" xlink:href="#DejaVuSans-100"/>
      <use x="349.21875" xlink:href="#DejaVuSans-97"/>
      <use x="410.498047" xlink:href="#DejaVuSans-116"/>
      <use x="449.707031" xlink:href="#DejaVuSans-111"/>
      <use x="510.888672" xlink:href="#DejaVuSans-32"/>
      <use x="542.675781" xlink:href="#DejaVuSans-49"/>
      <use x="606.298828" xlink:href="#DejaVuSans-52"/>
     </g>
    </g>
    <g id="patch_126">
     <path d="M 559.025187 678.67475 
L 587.825187 678.67475 
L 587.825187 668.59475 
L 559.025187 668.59475 
z
" style="fill:#87ceeb;"/>
    </g>
    <g id="text_27">
     <!-- Candidato 12 -->
     <g style="fill:#708090;" transform="translate(599.345187 678.67475)scale(0.144 -0.144)">
      <use xlink:href="#DejaVuSans-67"/>
      <use x="69.824219" xlink:href="#DejaVuSans-97"/>
      <use x="131.103516" xlink:href="#DejaVuSans-110"/>
      <use x="194.482422" xlink:href="#DejaVuSans-100"/>
      <use x="257.958984" xlink:href="#DejaVuSans-105"/>
      <use x="285.742188" xlink:href="#DejaVuSans-100"/>
      <use x="349.21875" xlink:href="#DejaVuSans-97"/>
      <use x="410.498047" xlink:href="#DejaVuSans-116"/>
      <use x="449.707031" xlink:href="#DejaVuSans-111"/>
      <use x="510.888672" xlink:href="#DejaVuSans-32"/>
      <use x="542.675781" xlink:href="#DejaVuSans-49"/>
      <use x="606.298828" xlink:href="#DejaVuSans-50"/>
     </g>
    </g>
    <g id="patch_127">
     <path d="M 724.616187 615.26525 
L 753.416187 615.26525 
L 753.416187 605.18525 
L 724.616187 605.18525 
z
" style="fill:#1e90ff;"/>
    </g>
    <g id="text_28">
     <!-- Candidato 13 -->
     <g style="fill:#708090;" transform="translate(764.936187 615.26525)scale(0.144 -0.144)">
      <use xlink:href="#DejaVuSans-67"/>
      <use x="69.824219" xlink:href="#DejaVuSans-97"/>
      <use x="131.103516" xlink:href="#DejaVuSans-110"/>
      <use x="194.482422" xlink:href="#DejaVuSans-100"/>
      <use x="257.958984" xlink:href="#DejaVuSans-105"/>
      <use x="285.742188" xlink:href="#DejaVuSans-100"/>
      <use x="349.21875" xlink:href="#DejaVuSans-97"/>
      <use x="410.498047" xlink:href="#DejaVuSans-116"/>
      <use x="449.707031" xlink:href="#DejaVuSans-111"/>
      <use x="510.888672" xlink:href="#DejaVuSans-32"/>
      <use x="542.675781" xlink:href="#DejaVuSans-49"/>
      <use x="606.298828" xlink:href="#DejaVuSans-51"/>
     </g>
    </g>
    <g id="patch_128">
     <path d="M 724.616187 636.40175 
L 753.416187 636.40175 
L 753.416187 626.32175 
L 724.616187 626.32175 
z
" style="fill:#4682b4;"/>
    </g>
    <g id="text_29">
     <!-- Candidato 11 -->
     <g style="fill:#708090;" transform="translate(764.936187 636.40175)scale(0.144 -0.144)">
      <use xlink:href="#DejaVuSans-67"/>
      <use x="69.824219" xlink:href="#DejaVuSans-97"/>
      <use x="131.103516" xlink:href="#DejaVuSans-110"/>
      <use x="194.482422" xlink:href="#DejaVuSans-100"/>
      <use x="257.958984" xlink:href="#DejaVuSans-105"/>
      <use x="285.742188" xlink:href="#DejaVuSans-100"/>
      <use x="349.21875" xlink:href="#DejaVuSans-97"/>
      <use x="410.498047" xlink:href="#DejaVuSans-116"/>
      <use x="449.707031" xlink:href="#DejaVuSans-111"/>
      <use x="510.888672" xlink:href="#DejaVuSans-32"/>
      <use x="542.675781" xlink:href="#DejaVuSans-49"/>
      <use x="606.298828" xlink:href="#DejaVuSans-49"/>
     </g>
    </g>
    <g id="patch_129">
     <path d="M 724.616187 658.11425 
L 753.416187 658.11425 
L 753.416187 648.03425 
L 724.616187 648.03425 
z
" style="fill:#c0c0c0;"/>
    </g>
    <g id="text_30">
     <!-- Ninguém/Branco/Nulo -->
     <g style="fill:#708090;" transform="translate(764.936187 658.11425)scale(0.144 -0.144)">
      <use xlink:href="#DejaVuSans-78"/>
      <use x="74.804688" xlink:href="#DejaVuSans-105"/>
      <use x="102.587891" xlink:href="#DejaVuSans-110"/>
      <use x="165.966797" xlink:href="#DejaVuSans-103"/>
      <use x="229.443359" xlink:href="#DejaVuSans-117"/>
      <use x="292.822266" xlink:href="#DejaVuSans-233"/>
      <use x="354.345703" xlink:href="#DejaVuSans-109"/>
      <use x="451.757812" xlink:href="#DejaVuSans-47"/>
      <use x="485.449219" xlink:href="#DejaVuSans-66"/>
      <use x="554.052734" xlink:href="#DejaVuSans-114"/>
      <use x="595.166016" xlink:href="#DejaVuSans-97"/>
      <use x="656.445312" xlink:href="#DejaVuSans-110"/>
      <use x="719.824219" xlink:href="#DejaVuSans-99"/>
      <use x="774.804688" xlink:href="#DejaVuSans-111"/>
      <use x="835.986328" xlink:href="#DejaVuSans-47"/>
      <use x="869.677734" xlink:href="#DejaVuSans-78"/>
      <use x="944.482422" xlink:href="#DejaVuSans-117"/>
      <use x="1007.861328" xlink:href="#DejaVuSans-108"/>
      <use x="1035.644531" xlink:href="#DejaVuSans-111"/>
     </g>
    </g>
    <g id="patch_130">
     <path d="M 724.616187 679.25075 
L 753.416187 679.25075 
L 753.416187 669.17075 
L 724.616187 669.17075 
z
" style="fill:#708090;"/>
    </g>
    <g id="text_31">
     <!-- NS/NR -->
     <g style="fill:#708090;" transform="translate(764.936187 679.25075)scale(0.144 -0.144)">
      <use xlink:href="#DejaVuSans-78"/>
      <use x="74.804688" xlink:href="#DejaVuSans-83"/>
      <use x="138.28125" xlink:href="#DejaVuSans-47"/>
      <use x="171.972656" xlink:href="#DejaVuSans-78"/>
      <use x="246.777344" xlink:href="#DejaVuSans-82"/>
     </g>
    </g>
   </g>
  </g>
 </g>
 <defs>
  <clipPath id="p6ed06a240d">
   <rect height="489.24" width="892.8" x="133.543438" y="28.7375"/>
  </clipPath>
 </defs>
</svg>
